<svg xmlns="http://www.w3.org/2000/svg" xmlns:xlink="http://www.w3.org/1999/xlink" width="500" zoomAndPan="magnify" viewBox="0 0 375 374.999991" height="500" preserveAspectRatio="xMidYMid meet" version="1.0"><defs><g/><clipPath id="78426ec8bc"><path d="M 22.902344 118.574219 L 251 118.574219 L 251 254 L 22.902344 254 Z M 22.902344 118.574219 " clip-rule="nonzero"/></clipPath></defs><g clip-path="url(#78426ec8bc)"><path fill="#000000" d="M 238.992188 118.667969 C 238.585938 118.664062 238.171875 118.664062 237.757812 118.664062 C 237.660156 118.664062 237.550781 118.667969 237.460938 118.667969 L 171.628906 118.667969 C 171.628906 118.667969 203.179688 121.078125 193.625 124.339844 C 192.726562 124.574219 191.824219 124.8125 190.925781 125.054688 C 190.792969 125.082031 190.6875 125.109375 190.542969 125.136719 L 190.675781 125.125 C 187.128906 126.09375 183.613281 127.175781 180.136719 128.34375 C 180.246094 128.285156 180.320312 128.242188 180.320312 128.242188 L 123.644531 128.242188 C 123.644531 128.242188 163.289062 132.566406 162.847656 135.027344 C 162.847656 135.039062 162.847656 135.039062 162.847656 135.046875 C 157.335938 137.492188 151.9375 140.214844 146.671875 143.144531 L 50.792969 143.152344 C 50.792969 143.152344 128.46875 149.078125 123.59375 158.039062 L 123.597656 158.039062 C 120.027344 160.707031 116.5625 163.515625 113.175781 166.410156 L 22.902344 166.421875 C 22.902344 166.421875 88.539062 175.367188 95.320312 183.785156 C 77.023438 204.027344 63.46875 227.78125 57.035156 253.273438 L 61.71875 253.273438 C 80.066406 180.910156 157.464844 122.949219 236.808594 122.964844 C 237.21875 122.964844 237.644531 122.964844 238.046875 122.976562 C 238.046875 122.976562 249.828125 123.539062 250.015625 121.914062 C 250.378906 118.667969 238.992188 118.667969 238.992188 118.667969 Z M 238.992188 118.667969 " fill-opacity="1" fill-rule="nonzero"/></g><path fill="#e6e6e6" d="M 80.039062 222.964844 L 107.089844 229.75 C 103.582031 236.398438 100.71875 243.332031 98.613281 250.464844 L 69.089844 250.453125 C 71.734375 240.992188 75.4375 231.792969 80.039062 222.964844 Z M 80.039062 222.964844 " fill-opacity="1" fill-rule="nonzero"/><path fill="#e6e6e6" d="M 100.839844 192.40625 L 123.648438 205.621094 C 118.183594 211.964844 113.316406 218.746094 109.222656 225.859375 L 82.152344 219.082031 C 87.394531 209.679688 93.695312 200.746094 100.839844 192.40625 Z M 100.839844 192.40625 " fill-opacity="1" fill-rule="nonzero"/><path fill="#e6e6e6" d="M 129.011719 165.886719 L 145.617188 185.03125 C 138.800781 190.214844 132.457031 195.960938 126.734375 202.167969 L 103.882812 188.929688 C 111.453125 180.5625 119.890625 172.832031 129.011719 165.886719 Z M 129.011719 165.886719 " fill-opacity="1" fill-rule="nonzero"/><path fill="#e6e6e6" d="M 162.195312 145.644531 L 171.636719 169.140625 C 163.863281 172.863281 156.421875 177.257812 149.429688 182.234375 L 132.800781 163.074219 C 142.019531 156.425781 151.882812 150.566406 162.195312 145.644531 Z M 162.195312 145.644531 " fill-opacity="1" fill-rule="nonzero"/><path fill="#e6e6e6" d="M 197.957031 132.902344 L 199.832031 159.050781 C 191.636719 161.035156 183.648438 163.769531 175.925781 167.171875 L 166.480469 143.660156 C 176.621094 139.128906 187.175781 135.503906 197.957031 132.902344 Z M 197.957031 132.902344 " fill-opacity="1" fill-rule="nonzero"/><path fill="#e6e6e6" d="M 234.457031 128.242188 L 228.488281 155.316406 C 220.355469 155.460938 212.28125 156.398438 204.328125 158.042969 L 202.453125 131.882812 C 212.972656 129.652344 223.691406 128.390625 234.457031 128.242188 Z M 234.457031 128.242188 " fill-opacity="1" fill-rule="nonzero"/><path fill="#000000" d="M 208.03125 237.214844 L 172.933594 237.222656 C 172.933594 237.222656 206.015625 239.746094 203.949219 243.5625 C 203.949219 243.5625 203.988281 243.542969 204.019531 243.53125 C 201.695312 249.402344 205.265625 252.042969 205.480469 252.199219 C 205.480469 252.199219 210.648438 256.484375 217.839844 248.175781 C 225.046875 239.851562 289.382812 148.050781 289.382812 148.050781 C 289.382812 148.050781 294.125 141.453125 295.007812 138.746094 C 295.125 138.433594 295.304688 137.914062 295.226562 137.957031 C 295.230469 137.851562 294.855469 138.074219 294.480469 138.347656 C 292.023438 139.894531 286.738281 146.078125 286.738281 146.078125 C 286.738281 146.078125 278.976562 154.925781 268.269531 167.175781 L 230.53125 167.175781 C 230.53125 167.175781 256.921875 169.191406 263.71875 172.386719 C 258.625 178.242188 253.074219 184.613281 247.472656 191.054688 L 195.046875 191.066406 C 195.046875 191.066406 241.945312 194.640625 239.660156 200.070312 C 235.210938 205.207031 230.890625 210.21875 226.890625 214.867188 L 162.804688 214.875 C 162.804688 214.875 220.21875 219.253906 216.617188 225.882812 Z M 208.03125 237.214844 " fill-opacity="1" fill-rule="nonzero"/><path fill="#ec1c24" d="M 351.445312 223.035156 L 321.410156 229.792969 C 321.988281 236.453125 321.78125 243.390625 320.722656 250.511719 L 350.242188 250.519531 C 351.789062 241.0625 352.152344 231.859375 351.445312 223.035156 Z M 351.445312 223.035156 " fill-opacity="1" fill-rule="nonzero"/><path fill="#ec1c24" d="M 344.148438 192.460938 L 315.503906 205.667969 C 318.179688 212.015625 320.035156 218.800781 320.980469 225.910156 L 351.0625 219.148438 C 349.957031 209.746094 347.613281 200.808594 344.148438 192.460938 Z M 344.148438 192.460938 " fill-opacity="1" fill-rule="nonzero"/><path fill="#ec1c24" d="M 327.691406 165.941406 L 302.621094 185.074219 C 307.152344 190.257812 310.964844 196.007812 313.957031 202.214844 L 342.632812 188.992188 C 338.761719 180.621094 333.742188 172.886719 327.691406 165.941406 Z M 327.691406 165.941406 " fill-opacity="1" fill-rule="nonzero"/><path fill="#ec1c24" d="M 303.449219 145.671875 L 283.632812 169.175781 C 289.765625 172.902344 295.257812 177.300781 300.054688 182.277344 L 325.132812 163.121094 C 318.859375 156.472656 311.597656 150.601562 303.449219 145.671875 Z M 303.449219 145.671875 " fill-opacity="1" fill-rule="nonzero"/><path fill="#ec1c24" d="M 283.8125 143.496094 C 284.382812 142.828125 286.5 140.390625 288.691406 138.21875 C 283.785156 136.164062 278.667969 134.371094 273.328125 132.921875 L 259.914062 159.070312 C 262.660156 159.816406 265.3125 160.707031 267.910156 161.667969 C 277.246094 150.980469 283.8125 143.496094 283.8125 143.496094 Z M 283.8125 143.496094 " fill-opacity="1" fill-rule="nonzero"/><path fill="#ec1c24" d="M 238.882812 128.242188 L 232.902344 155.320312 C 240.957031 155.457031 248.640625 156.410156 255.855469 158.058594 L 269.269531 131.90625 C 259.75 129.660156 249.582031 128.402344 238.882812 128.242188 Z M 238.882812 128.242188 " fill-opacity="1" fill-rule="nonzero"/><g fill="#ec1c24" fill-opacity="1"><g transform="translate(67.120304, 290.62296)"><g><path d="M 6.0625 -21.140625 L 10.9375 -21.140625 C 14.164062 -21.140625 15.78125 -19.78125 15.78125 -17.0625 L 15.78125 -4.078125 C 15.78125 -1.359375 14.164062 0 10.9375 0 L 6.0625 0 C 2.832031 0 1.21875 -1.359375 1.21875 -4.078125 L 1.21875 -17.0625 C 1.21875 -19.78125 2.832031 -21.140625 6.0625 -21.140625 Z M 10.015625 -4.84375 L 10.015625 -16.296875 C 10.015625 -16.785156 9.738281 -17.03125 9.1875 -17.03125 L 7.8125 -17.03125 C 7.257812 -17.03125 6.984375 -16.785156 6.984375 -16.296875 L 6.984375 -4.84375 C 6.984375 -4.363281 7.257812 -4.125 7.8125 -4.125 L 9.1875 -4.125 C 9.738281 -4.125 10.015625 -4.363281 10.015625 -4.84375 Z M 10.015625 -4.84375 "/></g></g></g><g fill="#ec1c24" fill-opacity="1"><g transform="translate(88.525417, 290.62296)"><g><path d="M 10.96875 -21.140625 L 16.234375 -21.140625 L 16.234375 0 L 11.296875 0 L 6.59375 -11.09375 L 6.59375 0 L 1.3125 0 L 1.3125 -21.140625 L 6.265625 -21.140625 L 10.96875 -9.84375 Z M 10.96875 -21.140625 "/></g></g></g><g fill="#ec1c24" fill-opacity="1"><g transform="translate(110.490329, 290.62296)"><g><path d="M 7.078125 -4.125 L 14.296875 -4.125 L 14.296875 0 L 1.3125 0 L 1.3125 -21.140625 L 14 -21.140625 L 14 -17.03125 L 7.078125 -17.03125 L 7.078125 -12.71875 L 13.046875 -12.71875 L 13.046875 -8.59375 L 7.078125 -8.59375 Z M 7.078125 -4.125 "/></g></g></g><g fill="#ec1c24" fill-opacity="1"><g transform="translate(129.689145, 290.62296)"><g/></g></g><g fill="#ec1c24" fill-opacity="1"><g transform="translate(140.68849, 290.62296)"><g><path d="M 11.140625 -21.140625 L 16.796875 -21.140625 L 16.796875 0 L 11.140625 0 L 11.140625 -8.359375 L 6.984375 -8.359375 L 6.984375 0 L 1.3125 0 L 1.3125 -21.140625 L 6.984375 -21.140625 L 6.984375 -12.484375 L 11.140625 -12.484375 Z M 11.140625 -21.140625 "/></g></g></g><g fill="#ec1c24" fill-opacity="1"><g transform="translate(163.213214, 290.62296)"><g><path d="M 10.109375 -21.140625 L 15.875 -21.140625 L 15.875 -4.078125 C 15.875 -1.359375 14.257812 0 11.03125 0 L 6.15625 0 C 2.925781 0 1.3125 -1.359375 1.3125 -4.078125 L 1.3125 -21.140625 L 7.078125 -21.140625 L 7.078125 -4.84375 C 7.078125 -4.363281 7.351562 -4.125 7.90625 -4.125 L 9.28125 -4.125 C 9.832031 -4.125 10.109375 -4.363281 10.109375 -4.84375 Z M 10.109375 -21.140625 "/></g></g></g><g fill="#ec1c24" fill-opacity="1"><g transform="translate(184.815893, 290.62296)"><g><path d="M 10.96875 -21.140625 L 16.234375 -21.140625 L 16.234375 0 L 11.296875 0 L 6.59375 -11.09375 L 6.59375 0 L 1.3125 0 L 1.3125 -21.140625 L 6.265625 -21.140625 L 10.96875 -9.84375 Z M 10.96875 -21.140625 "/></g></g></g><g fill="#ec1c24" fill-opacity="1"><g transform="translate(206.7808, 290.62296)"><g><path d="M 1.640625 -21.140625 L 11.359375 -21.140625 C 14.585938 -21.140625 16.203125 -19.78125 16.203125 -17.0625 L 16.203125 -4.078125 C 16.203125 -1.359375 14.585938 0 11.359375 0 L 1.640625 0 Z M 10.4375 -4.515625 L 10.4375 -16.640625 C 10.4375 -17.117188 10.164062 -17.359375 9.625 -17.359375 L 7.40625 -17.359375 L 7.40625 -3.78125 L 9.625 -3.78125 C 10.164062 -3.78125 10.4375 -4.023438 10.4375 -4.515625 Z M 10.4375 -4.515625 "/></g></g></g><g fill="#ec1c24" fill-opacity="1"><g transform="translate(228.613986, 290.62296)"><g><path d="M 7.078125 -7.515625 L 7.078125 0 L 1.3125 0 L 1.3125 -21.140625 L 11.09375 -21.140625 C 14.320312 -21.140625 15.9375 -19.78125 15.9375 -17.0625 L 15.9375 -11.59375 C 15.9375 -9.507812 14.992188 -8.222656 13.109375 -7.734375 L 17 0 L 10.796875 0 L 7.4375 -7.515625 Z M 9.359375 -17.03125 L 7.078125 -17.03125 L 7.078125 -11.421875 L 9.359375 -11.421875 C 9.898438 -11.421875 10.171875 -11.664062 10.171875 -12.15625 L 10.171875 -16.296875 C 10.171875 -16.785156 9.898438 -17.03125 9.359375 -17.03125 Z M 9.359375 -17.03125 "/></g></g></g><g fill="#ec1c24" fill-opacity="1"><g transform="translate(249.953233, 290.62296)"><g><path d="M 7.078125 -4.125 L 14.296875 -4.125 L 14.296875 0 L 1.3125 0 L 1.3125 -21.140625 L 14 -21.140625 L 14 -17.03125 L 7.078125 -17.03125 L 7.078125 -12.71875 L 13.046875 -12.71875 L 13.046875 -8.59375 L 7.078125 -8.59375 Z M 7.078125 -4.125 "/></g></g></g><g fill="#ec1c24" fill-opacity="1"><g transform="translate(269.152046, 290.62296)"><g><path d="M 1.640625 -21.140625 L 11.359375 -21.140625 C 14.585938 -21.140625 16.203125 -19.78125 16.203125 -17.0625 L 16.203125 -4.078125 C 16.203125 -1.359375 14.585938 0 11.359375 0 L 1.640625 0 Z M 10.4375 -4.515625 L 10.4375 -16.640625 C 10.4375 -17.117188 10.164062 -17.359375 9.625 -17.359375 L 7.40625 -17.359375 L 7.40625 -3.78125 L 9.625 -3.78125 C 10.164062 -3.78125 10.4375 -4.023438 10.4375 -4.515625 Z M 10.4375 -4.515625 "/></g></g></g><g fill="#ec1c24" fill-opacity="1"><g transform="translate(290.985243, 290.62296)"><g><path d="M 16.40625 -12.578125 L 16.40625 -8.46875 L 11.140625 -8.46875 L 11.140625 -3.359375 L 5.765625 -3.359375 L 5.765625 -8.46875 L 0.5 -8.46875 L 0.5 -12.578125 L 5.765625 -12.578125 L 5.765625 -17.6875 L 11.140625 -17.6875 L 11.140625 -12.578125 Z M 16.40625 -12.578125 "/></g></g></g><g fill="#000000" fill-opacity="1"><g transform="translate(102.873842, 319.172849)"><g><path d="M 4.828125 -2.625 L 11.203125 -2.625 L 11.203125 0 L 0.796875 0 L 0.796875 -1.921875 L 7.109375 -10.890625 L 1.46875 -10.890625 L 1.46875 -13.515625 L 10.8125 -13.515625 L 10.8125 -11.09375 Z M 4.828125 -2.625 "/></g></g></g><g fill="#000000" fill-opacity="1"><g transform="translate(118.386343, 319.172849)"><g><path d="M 5.53125 -9.71875 C 6.238281 -9.71875 6.882812 -9.570312 7.46875 -9.28125 C 8.050781 -9 8.550781 -8.625 8.96875 -8.15625 C 9.394531 -7.695312 9.722656 -7.164062 9.953125 -6.5625 C 10.179688 -5.957031 10.296875 -5.335938 10.296875 -4.703125 C 10.296875 -4.328125 10.242188 -3.921875 10.140625 -3.484375 L 3.390625 -3.484375 C 3.648438 -3.054688 4.015625 -2.691406 4.484375 -2.390625 C 4.953125 -2.085938 5.457031 -1.9375 6 -1.9375 C 6.550781 -1.9375 7.03125 -1.984375 7.4375 -2.078125 C 7.851562 -2.171875 8.242188 -2.285156 8.609375 -2.421875 L 9.5 -0.796875 C 9.019531 -0.472656 8.476562 -0.21875 7.875 -0.03125 C 7.28125 0.144531 6.640625 0.234375 5.953125 0.234375 C 5.203125 0.234375 4.5 0.101562 3.84375 -0.15625 C 3.195312 -0.414062 2.632812 -0.769531 2.15625 -1.21875 C 1.675781 -1.664062 1.296875 -2.191406 1.015625 -2.796875 C 0.734375 -3.410156 0.59375 -4.0625 0.59375 -4.75 C 0.59375 -5.414062 0.71875 -6.050781 0.96875 -6.65625 C 1.226562 -7.257812 1.582031 -7.785156 2.03125 -8.234375 C 2.476562 -8.691406 3 -9.050781 3.59375 -9.3125 C 4.195312 -9.582031 4.84375 -9.71875 5.53125 -9.71875 Z M 7.6875 -5.53125 C 7.53125 -6.070312 7.253906 -6.515625 6.859375 -6.859375 C 6.460938 -7.203125 6.019531 -7.375 5.53125 -7.375 C 5.019531 -7.375 4.554688 -7.203125 4.140625 -6.859375 C 3.734375 -6.515625 3.453125 -6.070312 3.296875 -5.53125 Z M 7.6875 -5.53125 "/></g></g></g><g fill="#000000" fill-opacity="1"><g transform="translate(133.193819, 319.172849)"><g><path d="M 3.453125 -8.140625 C 3.578125 -8.335938 3.722656 -8.53125 3.890625 -8.71875 C 4.054688 -8.90625 4.253906 -9.070312 4.484375 -9.21875 C 4.710938 -9.363281 4.972656 -9.476562 5.265625 -9.5625 C 5.554688 -9.65625 5.882812 -9.703125 6.25 -9.703125 C 6.6875 -9.703125 7.191406 -9.625 7.765625 -9.46875 L 7.515625 -7.125 C 7.367188 -7.15625 7.226562 -7.1875 7.09375 -7.21875 C 6.976562 -7.25 6.847656 -7.269531 6.703125 -7.28125 C 6.566406 -7.300781 6.441406 -7.3125 6.328125 -7.3125 C 5.921875 -7.3125 5.539062 -7.253906 5.1875 -7.140625 C 4.84375 -7.035156 4.539062 -6.878906 4.28125 -6.671875 C 4.03125 -6.460938 3.828125 -6.21875 3.671875 -5.9375 C 3.523438 -5.65625 3.453125 -5.347656 3.453125 -5.015625 L 3.453125 0 L 0.8125 0 L 0.8125 -9.453125 L 3.203125 -9.453125 Z M 3.453125 -8.140625 "/></g></g></g><g fill="#000000" fill-opacity="1"><g transform="translate(144.514271, 319.172849)"><g><path d="M 5.515625 -9.71875 C 6.179688 -9.71875 6.8125 -9.585938 7.40625 -9.328125 C 8.007812 -9.066406 8.53125 -8.710938 8.96875 -8.265625 C 9.414062 -7.816406 9.769531 -7.289062 10.03125 -6.6875 C 10.289062 -6.082031 10.421875 -5.4375 10.421875 -4.75 C 10.421875 -4.0625 10.289062 -3.414062 10.03125 -2.8125 C 9.769531 -2.207031 9.414062 -1.675781 8.96875 -1.21875 C 8.53125 -0.769531 8.007812 -0.414062 7.40625 -0.15625 C 6.8125 0.101562 6.179688 0.234375 5.515625 0.234375 C 4.828125 0.234375 4.179688 0.101562 3.578125 -0.15625 C 2.984375 -0.414062 2.460938 -0.769531 2.015625 -1.21875 C 1.578125 -1.675781 1.226562 -2.207031 0.96875 -2.8125 C 0.707031 -3.414062 0.578125 -4.0625 0.578125 -4.75 C 0.578125 -5.4375 0.707031 -6.082031 0.96875 -6.6875 C 1.226562 -7.289062 1.578125 -7.816406 2.015625 -8.265625 C 2.460938 -8.710938 2.984375 -9.066406 3.578125 -9.328125 C 4.179688 -9.585938 4.828125 -9.71875 5.515625 -9.71875 Z M 5.515625 -2.078125 C 5.828125 -2.078125 6.117188 -2.140625 6.390625 -2.265625 C 6.671875 -2.390625 6.914062 -2.5625 7.125 -2.78125 C 7.332031 -3.007812 7.492188 -3.28125 7.609375 -3.59375 C 7.734375 -3.90625 7.796875 -4.25 7.796875 -4.625 C 7.796875 -5.007812 7.734375 -5.367188 7.609375 -5.703125 C 7.492188 -6.035156 7.332031 -6.320312 7.125 -6.5625 C 6.914062 -6.8125 6.671875 -7.007812 6.390625 -7.15625 C 6.117188 -7.300781 5.828125 -7.375 5.515625 -7.375 C 5.191406 -7.375 4.890625 -7.300781 4.609375 -7.15625 C 4.328125 -7.007812 4.082031 -6.8125 3.875 -6.5625 C 3.664062 -6.320312 3.5 -6.035156 3.375 -5.703125 C 3.257812 -5.367188 3.203125 -5.007812 3.203125 -4.625 C 3.203125 -4.25 3.257812 -3.90625 3.375 -3.59375 C 3.5 -3.28125 3.664062 -3.007812 3.875 -2.78125 C 4.082031 -2.5625 4.328125 -2.390625 4.609375 -2.265625 C 4.890625 -2.140625 5.191406 -2.078125 5.515625 -2.078125 Z M 5.515625 -2.078125 "/></g></g></g><g fill="#000000" fill-opacity="1"><g transform="translate(158.921592, 319.172849)"><g/></g></g><g fill="#000000" fill-opacity="1"><g transform="translate(167.631541, 319.172849)"><g><path d="M 4.34375 -3.390625 C 4.34375 -2.941406 4.476562 -2.597656 4.75 -2.359375 C 5.03125 -2.117188 5.390625 -2 5.828125 -2 C 6.179688 -2 6.539062 -2.070312 6.90625 -2.21875 L 6.90625 0 C 6.582031 0.101562 6.242188 0.1875 5.890625 0.25 C 5.535156 0.320312 5.179688 0.359375 4.828125 0.359375 C 4.421875 0.359375 4.03125 0.304688 3.65625 0.203125 C 3.289062 0.109375 2.960938 -0.0625 2.671875 -0.3125 C 2.378906 -0.5625 2.144531 -0.890625 1.96875 -1.296875 C 1.800781 -1.710938 1.71875 -2.226562 1.71875 -2.84375 L 1.71875 -7.109375 L 0.359375 -7.109375 L 0.359375 -8.890625 L 1.71875 -9.453125 L 1.71875 -11.578125 L 4.34375 -11.578125 L 4.34375 -9.453125 L 6.90625 -9.453125 L 6.90625 -7.109375 L 4.34375 -7.109375 Z M 4.34375 -3.390625 "/></g></g></g><g fill="#000000" fill-opacity="1"><g transform="translate(178.399401, 319.172849)"><g><path d="M 5.515625 -9.71875 C 6.179688 -9.71875 6.8125 -9.585938 7.40625 -9.328125 C 8.007812 -9.066406 8.53125 -8.710938 8.96875 -8.265625 C 9.414062 -7.816406 9.769531 -7.289062 10.03125 -6.6875 C 10.289062 -6.082031 10.421875 -5.4375 10.421875 -4.75 C 10.421875 -4.0625 10.289062 -3.414062 10.03125 -2.8125 C 9.769531 -2.207031 9.414062 -1.675781 8.96875 -1.21875 C 8.53125 -0.769531 8.007812 -0.414062 7.40625 -0.15625 C 6.8125 0.101562 6.179688 0.234375 5.515625 0.234375 C 4.828125 0.234375 4.179688 0.101562 3.578125 -0.15625 C 2.984375 -0.414062 2.460938 -0.769531 2.015625 -1.21875 C 1.578125 -1.675781 1.226562 -2.207031 0.96875 -2.8125 C 0.707031 -3.414062 0.578125 -4.0625 0.578125 -4.75 C 0.578125 -5.4375 0.707031 -6.082031 0.96875 -6.6875 C 1.226562 -7.289062 1.578125 -7.816406 2.015625 -8.265625 C 2.460938 -8.710938 2.984375 -9.066406 3.578125 -9.328125 C 4.179688 -9.585938 4.828125 -9.71875 5.515625 -9.71875 Z M 5.515625 -2.078125 C 5.828125 -2.078125 6.117188 -2.140625 6.390625 -2.265625 C 6.671875 -2.390625 6.914062 -2.5625 7.125 -2.78125 C 7.332031 -3.007812 7.492188 -3.28125 7.609375 -3.59375 C 7.734375 -3.90625 7.796875 -4.25 7.796875 -4.625 C 7.796875 -5.007812 7.734375 -5.367188 7.609375 -5.703125 C 7.492188 -6.035156 7.332031 -6.320312 7.125 -6.5625 C 6.914062 -6.8125 6.671875 -7.007812 6.390625 -7.15625 C 6.117188 -7.300781 5.828125 -7.375 5.515625 -7.375 C 5.191406 -7.375 4.890625 -7.300781 4.609375 -7.15625 C 4.328125 -7.007812 4.082031 -6.8125 3.875 -6.5625 C 3.664062 -6.320312 3.5 -6.035156 3.375 -5.703125 C 3.257812 -5.367188 3.203125 -5.007812 3.203125 -4.625 C 3.203125 -4.25 3.257812 -3.90625 3.375 -3.59375 C 3.5 -3.28125 3.664062 -3.007812 3.875 -2.78125 C 4.082031 -2.5625 4.328125 -2.390625 4.609375 -2.265625 C 4.890625 -2.140625 5.191406 -2.078125 5.515625 -2.078125 Z M 5.515625 -2.078125 "/></g></g></g><g fill="#000000" fill-opacity="1"><g transform="translate(192.806722, 319.172849)"><g/></g></g><g fill="#000000" fill-opacity="1"><g transform="translate(201.516677, 319.172849)"><g><path d="M 1.140625 -13.515625 L 5.640625 -13.515625 L 5.640625 0 L 2.75 0 L 2.75 -10.890625 L 1.140625 -10.890625 Z M 1.140625 -13.515625 "/></g></g></g><g fill="#000000" fill-opacity="1"><g transform="translate(211.979655, 319.172849)"><g><path d="M 6.03125 -13.6875 C 6.789062 -13.6875 7.492188 -13.539062 8.140625 -13.25 C 8.785156 -12.957031 9.335938 -12.53125 9.796875 -11.96875 C 10.242188 -11.425781 10.597656 -10.78125 10.859375 -10.03125 C 11.117188 -9.28125 11.25 -8.441406 11.25 -7.515625 L 11.25 -5.859375 C 11.25 -4.972656 11.113281 -4.164062 10.84375 -3.4375 C 10.582031 -2.707031 10.210938 -2.070312 9.734375 -1.53125 C 9.265625 -0.96875 8.710938 -0.539062 8.078125 -0.25 C 7.441406 0.03125 6.757812 0.171875 6.03125 0.171875 C 5.300781 0.171875 4.613281 0.0195312 3.96875 -0.28125 C 3.332031 -0.59375 2.769531 -1.03125 2.28125 -1.59375 C 1.820312 -2.144531 1.457031 -2.78125 1.1875 -3.5 C 0.914062 -4.226562 0.78125 -5.015625 0.78125 -5.859375 L 0.78125 -7.515625 C 0.78125 -8.429688 0.90625 -9.265625 1.15625 -10.015625 C 1.414062 -10.773438 1.769531 -11.421875 2.21875 -11.953125 C 2.664062 -12.523438 3.21875 -12.957031 3.875 -13.25 C 4.53125 -13.539062 5.25 -13.6875 6.03125 -13.6875 Z M 8.328125 -7.421875 C 8.328125 -8.640625 8.085938 -9.578125 7.609375 -10.234375 C 7.210938 -10.785156 6.671875 -11.0625 5.984375 -11.0625 C 5.296875 -11.0625 4.753906 -10.785156 4.359375 -10.234375 C 3.878906 -9.578125 3.640625 -8.640625 3.640625 -7.421875 L 3.640625 -5.984375 C 3.640625 -5.453125 3.703125 -4.957031 3.828125 -4.5 C 3.953125 -4.050781 4.144531 -3.664062 4.40625 -3.34375 C 4.832031 -2.738281 5.359375 -2.4375 5.984375 -2.4375 C 6.335938 -2.4375 6.65625 -2.519531 6.9375 -2.6875 C 7.226562 -2.863281 7.472656 -3.109375 7.671875 -3.421875 C 7.878906 -3.734375 8.039062 -4.101562 8.15625 -4.53125 C 8.269531 -4.96875 8.328125 -5.453125 8.328125 -5.984375 Z M 8.328125 -7.421875 "/></g></g></g><g fill="#000000" fill-opacity="1"><g transform="translate(227.358773, 319.172849)"><g><path d="M 6.03125 -13.6875 C 6.789062 -13.6875 7.492188 -13.539062 8.140625 -13.25 C 8.785156 -12.957031 9.335938 -12.53125 9.796875 -11.96875 C 10.242188 -11.425781 10.597656 -10.78125 10.859375 -10.03125 C 11.117188 -9.28125 11.25 -8.441406 11.25 -7.515625 L 11.25 -5.859375 C 11.25 -4.972656 11.113281 -4.164062 10.84375 -3.4375 C 10.582031 -2.707031 10.210938 -2.070312 9.734375 -1.53125 C 9.265625 -0.96875 8.710938 -0.539062 8.078125 -0.25 C 7.441406 0.03125 6.757812 0.171875 6.03125 0.171875 C 5.300781 0.171875 4.613281 0.0195312 3.96875 -0.28125 C 3.332031 -0.59375 2.769531 -1.03125 2.28125 -1.59375 C 1.820312 -2.144531 1.457031 -2.78125 1.1875 -3.5 C 0.914062 -4.226562 0.78125 -5.015625 0.78125 -5.859375 L 0.78125 -7.515625 C 0.78125 -8.429688 0.90625 -9.265625 1.15625 -10.015625 C 1.414062 -10.773438 1.769531 -11.421875 2.21875 -11.953125 C 2.664062 -12.523438 3.21875 -12.957031 3.875 -13.25 C 4.53125 -13.539062 5.25 -13.6875 6.03125 -13.6875 Z M 8.328125 -7.421875 C 8.328125 -8.640625 8.085938 -9.578125 7.609375 -10.234375 C 7.210938 -10.785156 6.671875 -11.0625 5.984375 -11.0625 C 5.296875 -11.0625 4.753906 -10.785156 4.359375 -10.234375 C 3.878906 -9.578125 3.640625 -8.640625 3.640625 -7.421875 L 3.640625 -5.984375 C 3.640625 -5.453125 3.703125 -4.957031 3.828125 -4.5 C 3.953125 -4.050781 4.144531 -3.664062 4.40625 -3.34375 C 4.832031 -2.738281 5.359375 -2.4375 5.984375 -2.4375 C 6.335938 -2.4375 6.65625 -2.519531 6.9375 -2.6875 C 7.226562 -2.863281 7.472656 -3.109375 7.671875 -3.421875 C 7.878906 -3.734375 8.039062 -4.101562 8.15625 -4.53125 C 8.269531 -4.96875 8.328125 -5.453125 8.328125 -5.984375 Z M 8.328125 -7.421875 "/></g></g></g><g fill="#000000" fill-opacity="1"><g transform="translate(242.737892, 319.172849)"><g><path d="M 2.359375 -2.75 C 2.765625 -2.75 3.109375 -2.609375 3.390625 -2.328125 C 3.679688 -2.046875 3.828125 -1.703125 3.828125 -1.296875 C 3.828125 -0.890625 3.679688 -0.546875 3.390625 -0.265625 C 3.109375 0.015625 2.765625 0.15625 2.359375 0.15625 C 1.953125 0.15625 1.609375 0.015625 1.328125 -0.265625 C 1.054688 -0.546875 0.921875 -0.890625 0.921875 -1.296875 C 0.921875 -1.703125 1.054688 -2.046875 1.328125 -2.328125 C 1.609375 -2.609375 1.953125 -2.75 2.359375 -2.75 Z M 2.359375 -2.75 "/></g></g></g><g fill="#000000" fill-opacity="1"><g transform="translate(250.952415, 319.172849)"><g><path d="M 2.359375 -2.75 C 2.765625 -2.75 3.109375 -2.609375 3.390625 -2.328125 C 3.679688 -2.046875 3.828125 -1.703125 3.828125 -1.296875 C 3.828125 -0.890625 3.679688 -0.546875 3.390625 -0.265625 C 3.109375 0.015625 2.765625 0.15625 2.359375 0.15625 C 1.953125 0.15625 1.609375 0.015625 1.328125 -0.265625 C 1.054688 -0.546875 0.921875 -0.890625 0.921875 -1.296875 C 0.921875 -1.703125 1.054688 -2.046875 1.328125 -2.328125 C 1.609375 -2.609375 1.953125 -2.75 2.359375 -2.75 Z M 2.359375 -2.75 "/></g></g></g><g fill="#000000" fill-opacity="1"><g transform="translate(259.166938, 319.172849)"><g><path d="M 2.359375 -2.75 C 2.765625 -2.75 3.109375 -2.609375 3.390625 -2.328125 C 3.679688 -2.046875 3.828125 -1.703125 3.828125 -1.296875 C 3.828125 -0.890625 3.679688 -0.546875 3.390625 -0.265625 C 3.109375 0.015625 2.765625 0.15625 2.359375 0.15625 C 1.953125 0.15625 1.609375 0.015625 1.328125 -0.265625 C 1.054688 -0.546875 0.921875 -0.890625 0.921875 -1.296875 C 0.921875 -1.703125 1.054688 -2.046875 1.328125 -2.328125 C 1.609375 -2.609375 1.953125 -2.75 2.359375 -2.75 Z M 2.359375 -2.75 "/></g></g></g><g fill="#000000" fill-opacity="1"><g transform="translate(267.381461, 319.172849)"><g><path d="M 2.359375 -2.75 C 2.765625 -2.75 3.109375 -2.609375 3.390625 -2.328125 C 3.679688 -2.046875 3.828125 -1.703125 3.828125 -1.296875 C 3.828125 -0.890625 3.679688 -0.546875 3.390625 -0.265625 C 3.109375 0.015625 2.765625 0.15625 2.359375 0.15625 C 1.953125 0.15625 1.609375 0.015625 1.328125 -0.265625 C 1.054688 -0.546875 0.921875 -0.890625 0.921875 -1.296875 C 0.921875 -1.703125 1.054688 -2.046875 1.328125 -2.328125 C 1.609375 -2.609375 1.953125 -2.75 2.359375 -2.75 Z M 2.359375 -2.75 "/></g></g></g></svg>