<svg xmlns="http://www.w3.org/2000/svg" xmlns:xlink="http://www.w3.org/1999/xlink" width="500" zoomAndPan="magnify" viewBox="0 0 375 374.999991" height="500" preserveAspectRatio="xMidYMid meet" version="1.0"><defs><g/><clipPath id="6df73f1fe9"><path d="M 72 65 L 282 65 L 282 155 L 72 155 Z M 72 65 " clip-rule="nonzero"/></clipPath><clipPath id="1e15c2bbf6"><path d="M 129.640625 -19.296875 L 340.832031 106.855469 L 245.066406 267.179688 L 33.875 141.027344 Z M 129.640625 -19.296875 " clip-rule="nonzero"/></clipPath><clipPath id="9b70e3e4da"><path d="M 129.75 -19.480469 L 340.941406 106.671875 L 244.789062 267.640625 L 33.597656 141.488281 Z M 129.75 -19.480469 " clip-rule="nonzero"/></clipPath><clipPath id="8b68bca881"><path d="M 64 47 L 316 47 L 316 161 L 64 161 Z M 64 47 " clip-rule="nonzero"/></clipPath><clipPath id="fd783c7c4e"><path d="M 129.640625 -19.296875 L 340.832031 106.855469 L 245.066406 267.179688 L 33.875 141.027344 Z M 129.640625 -19.296875 " clip-rule="nonzero"/></clipPath><clipPath id="697d825717"><path d="M 129.75 -19.480469 L 340.941406 106.671875 L 244.789062 267.640625 L 33.597656 141.488281 Z M 129.75 -19.480469 " clip-rule="nonzero"/></clipPath><clipPath id="8a847bba87"><path d="M 141 154 L 283 154 L 283 186 L 141 186 Z M 141 154 " clip-rule="nonzero"/></clipPath><clipPath id="f4c79f301c"><path d="M 129.640625 -19.296875 L 340.832031 106.855469 L 245.066406 267.179688 L 33.875 141.027344 Z M 129.640625 -19.296875 " clip-rule="nonzero"/></clipPath><clipPath id="f0604ba162"><path d="M 129.75 -19.480469 L 340.941406 106.671875 L 244.789062 267.640625 L 33.597656 141.488281 Z M 129.75 -19.480469 " clip-rule="nonzero"/></clipPath></defs><g clip-path="url(#6df73f1fe9)"><g clip-path="url(#1e15c2bbf6)"><g clip-path="url(#9b70e3e4da)"><path fill="#ff993b" d="M 236.949219 82.285156 C 227.238281 76.117188 216.503906 71.539062 205.054688 68.6875 C 193.925781 65.914062 182.410156 64.835938 170.832031 65.480469 C 159.53125 66.105469 148.5 68.363281 138.050781 72.179688 C 127.328125 76.09375 117.484375 81.5625 108.804688 88.425781 C 89.976562 103.308594 77.429688 124.179688 72.507812 148.789062 L 72.242188 150.136719 L 87.144531 154.058594 L 87.890625 151.234375 L 75.648438 148.011719 C 76.234375 145.265625 76.921875 142.570312 77.699219 139.933594 L 83.085938 142.539062 L 84.359375 139.90625 L 78.578125 137.109375 C 79.402344 134.59375 80.308594 132.125 81.304688 129.71875 L 86.742188 133.539062 L 88.421875 131.148438 L 82.492188 126.976562 C 83.523438 124.679688 84.628906 122.429688 85.816406 120.242188 L 91.160156 125.273438 L 93.164062 123.144531 L 87.296875 117.621094 C 88.515625 115.527344 89.800781 113.484375 91.160156 111.503906 L 102.769531 125.664062 L 105.023438 123.804688 L 92.917969 109.039062 C 94.308594 107.144531 95.761719 105.304688 97.277344 103.523438 L 102.003906 110.9375 L 104.464844 109.359375 L 99.289062 101.242188 C 100.835938 99.539062 102.441406 97.890625 104.101562 96.304688 L 108.289062 104.871094 L 110.910156 103.578125 L 106.34375 94.238281 C 108.03125 92.726562 109.773438 91.269531 111.566406 89.878906 L 115.058594 99.53125 L 117.804688 98.53125 L 114.007812 88.042969 C 115.824219 86.722656 117.691406 85.460938 119.605469 84.261719 L 125.417969 107.699219 L 128.25 106.988281 L 122.21875 82.671875 C 124.144531 81.546875 126.121094 80.480469 128.136719 79.476562 L 129.792969 91.054688 L 132.683594 90.628906 L 130.894531 78.152344 C 132.917969 77.21875 134.976562 76.347656 137.078125 75.539062 L 137.628906 87.910156 L 140.542969 87.773438 L 139.953125 74.484375 C 142.050781 73.746094 144.1875 73.070312 146.355469 72.460938 L 145.691406 85.496094 L 148.605469 85.636719 L 149.316406 71.664062 C 151.472656 71.121094 153.660156 70.640625 155.875 70.222656 L 151.605469 99.730469 L 154.492188 100.140625 L 158.898438 69.699219 C 161.097656 69.34375 163.324219 69.054688 165.574219 68.824219 L 162.226562 82.859375 L 165.0625 83.53125 L 168.636719 68.550781 C 169.417969 68.492188 170.199219 68.441406 170.984375 68.398438 C 172.433594 68.316406 173.898438 68.265625 175.382812 68.242188 L 170.570312 82.632812 L 173.335938 83.554688 L 178.457031 68.242188 C 180.679688 68.273438 182.933594 68.367188 185.210938 68.535156 L 178.882812 83.136719 L 181.558594 84.292969 L 188.273438 68.800781 C 190.496094 69.023438 192.738281 69.316406 194.992188 69.679688 L 177.992188 101.28125 L 180.5625 102.660156 L 198.015625 70.207031 C 200.226562 70.625 202.445312 71.109375 204.664062 71.667969 L 195.136719 86.316406 L 197.582031 87.90625 L 207.628906 72.453125 C 209.808594 73.066406 211.988281 73.75 214.15625 74.503906 L 202.957031 88.992188 L 205.261719 90.777344 L 217.03125 75.554688 C 219.167969 76.363281 221.292969 77.25 223.398438 78.210938 L 210.480469 92.386719 L 212.632812 94.355469 L 226.152344 79.515625 C 228.226562 80.539062 230.277344 81.632812 232.300781 82.804688 L 201.242188 111.835938 L 203.230469 113.972656 L 234.90625 84.367188 C 236.894531 85.601562 238.859375 86.910156 240.785156 88.304688 L 224.390625 101.339844 L 226.199219 103.628906 L 243.203125 90.109375 C 245.09375 91.566406 246.945312 93.105469 248.753906 94.726562 L 230.648438 106.894531 L 232.269531 109.320312 L 250.957031 96.761719 C 252.726562 98.449219 254.449219 100.21875 256.125 102.078125 L 214.632812 125.347656 L 216.054688 127.894531 L 258.085938 104.320312 C 259.714844 106.246094 261.292969 108.257812 262.808594 110.355469 L 241.449219 120.148438 L 242.65625 122.804688 L 264.515625 112.785156 C 265.984375 114.953125 267.394531 117.214844 268.738281 119.566406 L 245.863281 127.84375 L 246.851562 130.589844 L 270.167969 122.152344 C 271.464844 124.574219 272.691406 127.089844 273.84375 129.699219 L 249.539062 136.25 L 250.289062 139.074219 L 275 132.414062 C 276.101562 135.097656 277.132812 137.878906 278.078125 140.761719 L 224.457031 150.386719 L 224.964844 153.265625 L 281.863281 143.050781 L 281.367188 141.464844 C 273.453125 116.179688 258.09375 95.71875 236.949219 82.285156 " fill-opacity="1" fill-rule="nonzero"/></g></g></g><g clip-path="url(#8b68bca881)"><g clip-path="url(#fd783c7c4e)"><g clip-path="url(#697d825717)"><path fill="#ec1d27" d="M 315.503906 147.8125 C 315.410156 147.5 315.296875 147.105469 315.164062 146.640625 C 315.097656 146.410156 315.023438 146.160156 314.949219 145.890625 C 314.90625 145.753906 314.867188 145.617188 314.828125 145.472656 C 314.78125 145.320312 314.730469 145.164062 314.679688 145 C 300.277344 98.214844 263.230469 60.296875 214.714844 50.179688 C 143.703125 35.371094 67.527344 84.675781 64.839844 160.105469 C 65.742188 160.167969 66.648438 160.21875 67.554688 160.269531 C 68.886719 160.339844 68.976562 160.425781 69.101562 159.082031 C 69.28125 157.15625 69.484375 155.230469 69.742188 153.3125 C 71.730469 138.34375 76.421875 123.957031 84.234375 110.992188 C 91.847656 98.351562 102.101562 87.308594 114.222656 78.894531 C 115.015625 78.34375 115.816406 77.804688 116.621094 77.277344 C 118.640625 75.972656 120.710938 74.707031 122.84375 73.511719 C 131.371094 68.714844 140.820312 64.917969 150.742188 62.367188 C 183.242188 54.003906 218.804688 59.019531 247 77.367188 C 272.710938 94.09375 289.917969 120.207031 297.613281 149.691406 C 297.648438 149.832031 297.683594 149.96875 297.71875 150.101562 C 297.753906 150.246094 297.789062 150.382812 297.824219 150.519531 C 297.890625 150.789062 297.953125 151.042969 298.011719 151.277344 C 298.125 151.75 298.226562 152.144531 298.300781 152.460938 C 298.460938 153.097656 298.539062 153.425781 298.539062 153.425781 L 315.777344 148.765625 C 315.777344 148.765625 315.683594 148.445312 315.503906 147.8125 " fill-opacity="1" fill-rule="nonzero"/></g></g></g><g clip-path="url(#8a847bba87)"><g clip-path="url(#f4c79f301c)"><g clip-path="url(#f0604ba162)"><path fill="#1a1a1a" d="M 151.351562 178.203125 C 147.902344 176.140625 146.78125 171.667969 148.847656 168.207031 C 150.644531 165.199219 154.253906 163.949219 157.433594 165.023438 C 157.914062 165.1875 158.386719 165.402344 158.835938 165.671875 C 162.289062 167.734375 163.410156 172.207031 161.34375 175.667969 C 160.34375 177.339844 158.789062 178.46875 157.058594 178.957031 C 155.199219 179.480469 153.140625 179.269531 151.351562 178.203125 Z M 282.3125 154.078125 L 166.625 164.21875 C 165.519531 162.558594 164.039062 161.109375 162.214844 160.019531 C 155.652344 156.101562 147.144531 158.257812 143.214844 164.839844 C 139.285156 171.421875 141.414062 179.933594 147.976562 183.851562 C 154.539062 187.773438 163.042969 185.613281 166.976562 179.035156 C 167.230469 178.605469 167.460938 178.171875 167.664062 177.730469 L 282.3125 154.078125 " fill-opacity="1" fill-rule="nonzero"/></g></g></g><g fill="#ec1d27" fill-opacity="1"><g transform="translate(51.128907, 220.974067)"><g><path d="M 2.027344 -14.675781 C 1.941406 -13.929688 1.820312 -12.609375 1.488281 -10.542969 C 1.199219 -8.515625 0.949219 -6.945312 0.785156 -5.828125 C 0.578125 -4.300781 0.453125 -3.265625 0.414062 -2.726562 L 0.414062 -2.230469 C 0.414062 -1.652344 0.539062 -1.199219 0.703125 -0.867188 C 0.949219 -0.539062 1.363281 -0.289062 2.027344 -0.164062 C 2.605469 -0.0820312 3.761719 0 5.539062 0 L 15.253906 0 C 17.113281 0 18.3125 -0.0820312 18.890625 -0.164062 C 19.679688 -0.332031 20.214844 -0.621094 20.546875 -1.117188 C 20.792969 -1.488281 21 -2.066406 21.167969 -2.8125 C 21.289062 -3.347656 21.457031 -4.339844 21.664062 -5.828125 L 22.902344 -14.675781 C 23.152344 -16.246094 23.273438 -17.320312 23.273438 -17.816406 L 23.273438 -18.230469 C 23.273438 -18.851562 23.191406 -19.304688 22.984375 -19.59375 C 22.777344 -19.925781 22.40625 -20.175781 21.910156 -20.257812 C 21.332031 -20.421875 20.050781 -20.464844 18.023438 -20.464844 L 8.515625 -20.464844 C 6.863281 -20.464844 5.746094 -20.464844 5.167969 -20.378906 C 4.339844 -20.296875 3.761719 -20.050781 3.390625 -19.636719 C 2.976562 -19.222656 2.644531 -18.394531 2.398438 -17.113281 C 2.316406 -16.703125 2.191406 -15.875 2.027344 -14.675781 Z M 9.921875 -14.675781 L 17.03125 -14.675781 L 16 -7.316406 C 15.914062 -6.820312 15.875 -6.53125 15.792969 -6.367188 C 15.792969 -6.199219 15.710938 -6.078125 15.625 -5.996094 C 15.542969 -5.910156 15.417969 -5.871094 15.253906 -5.828125 L 6.65625 -5.828125 L 7.6875 -13.144531 C 7.730469 -13.394531 7.773438 -13.601562 7.773438 -13.683594 C 7.855469 -14.054688 7.9375 -14.304688 8.019531 -14.386719 C 8.144531 -14.511719 8.351562 -14.59375 8.597656 -14.632812 C 8.804688 -14.675781 9.261719 -14.675781 9.921875 -14.675781 Z M 9.921875 -14.675781 "/></g></g></g><g fill="#ec1d27" fill-opacity="1"><g transform="translate(74.770774, 220.974067)"><g><path d="M 2.480469 -14.632812 L 2.273438 -13.144531 L 1.445312 -7.316406 L 1.238281 -5.789062 L 0.414062 0 C 2.191406 0 3.347656 -0.0429688 3.886719 -0.0820312 C 4.628906 -0.207031 5.207031 -0.414062 5.539062 -0.660156 C 5.953125 -0.992188 6.285156 -1.488281 6.449219 -2.191406 C 6.613281 -2.769531 6.863281 -3.96875 7.109375 -5.789062 L 7.316406 -7.316406 L 8.144531 -13.144531 C 8.226562 -13.601562 8.269531 -13.890625 8.269531 -14.015625 C 8.351562 -14.261719 8.476562 -14.425781 8.558594 -14.511719 C 8.679688 -14.59375 8.804688 -14.632812 8.972656 -14.632812 C 9.054688 -14.675781 9.175781 -14.675781 9.300781 -14.675781 C 9.46875 -14.675781 9.671875 -14.675781 9.878906 -14.632812 L 17.445312 -14.632812 L 17.238281 -13.144531 L 16.410156 -7.316406 L 16.207031 -5.789062 L 15.378906 0 C 17.402344 0 18.726562 -0.0820312 19.304688 -0.164062 C 20.007812 -0.332031 20.503906 -0.578125 20.835938 -0.949219 C 21.167969 -1.28125 21.371094 -1.820312 21.539062 -2.480469 C 21.703125 -3.019531 21.867188 -4.132812 22.074219 -5.789062 L 22.28125 -7.316406 L 23.109375 -13.144531 L 23.316406 -14.632812 C 23.5625 -16.453125 23.6875 -17.652344 23.6875 -18.191406 L 23.6875 -18.480469 C 23.644531 -19.183594 23.441406 -19.679688 23.109375 -19.925781 C 22.859375 -20.175781 22.449219 -20.296875 21.910156 -20.378906 C 21.414062 -20.464844 20.628906 -20.464844 19.511719 -20.464844 L 7.894531 -20.464844 C 6.820312 -20.464844 6.035156 -20.464844 5.539062 -20.378906 C 4.878906 -20.296875 4.382812 -20.132812 4.050781 -19.882812 C 3.636719 -19.59375 3.308594 -19.058594 3.058594 -18.273438 C 2.933594 -17.734375 2.726562 -16.535156 2.480469 -14.632812 Z M 2.480469 -14.632812 "/></g></g></g><g fill="#ec1d27" fill-opacity="1"><g transform="translate(98.825967, 220.974067)"><g><path d="M 8.847656 -20.503906 C 6.945312 -20.503906 5.703125 -20.464844 5.125 -20.378906 C 4.382812 -20.296875 3.804688 -20.050781 3.390625 -19.679688 C 3.019531 -19.347656 2.726562 -18.644531 2.523438 -17.652344 C 2.4375 -17.15625 2.273438 -16.207031 2.027344 -14.71875 L 0.785156 -5.871094 C 0.578125 -4.214844 0.453125 -3.140625 0.414062 -2.5625 L 0.414062 -2.273438 C 0.414062 -1.695312 0.496094 -1.28125 0.660156 -0.992188 C 0.910156 -0.621094 1.324219 -0.371094 1.902344 -0.207031 C 2.480469 -0.125 3.554688 -0.0429688 5.207031 -0.0429688 L 20.835938 -0.0429688 L 20.835938 -0.703125 C 20.835938 -1.941406 20.835938 -2.769531 20.753906 -3.265625 C 20.710938 -4.175781 20.546875 -4.753906 20.214844 -5.085938 C 19.96875 -5.414062 19.511719 -5.621094 18.851562 -5.703125 C 18.394531 -5.789062 17.363281 -5.828125 15.75 -5.828125 L 6.65625 -5.828125 C 6.738281 -6.285156 6.78125 -6.574219 6.78125 -6.695312 C 6.820312 -6.945312 6.863281 -7.109375 6.945312 -7.191406 C 7.027344 -7.277344 7.152344 -7.316406 7.277344 -7.316406 C 7.398438 -7.359375 7.605469 -7.359375 7.894531 -7.359375 L 16.578125 -7.359375 C 18.023438 -7.359375 19.015625 -7.398438 19.554688 -7.484375 C 20.378906 -7.566406 20.960938 -7.8125 21.332031 -8.144531 C 21.664062 -8.515625 21.953125 -9.09375 22.117188 -9.878906 C 22.28125 -10.417969 22.449219 -11.492188 22.65625 -13.144531 L 22.902344 -14.71875 C 23.066406 -16.039062 23.191406 -16.90625 23.234375 -17.363281 C 23.273438 -17.734375 23.273438 -18.023438 23.273438 -18.273438 C 23.273438 -19.097656 23.109375 -19.679688 22.695312 -19.96875 C 22.363281 -20.214844 21.746094 -20.378906 20.835938 -20.464844 C 20.339844 -20.503906 19.347656 -20.503906 17.859375 -20.503906 Z M 8.929688 -14.675781 L 16.992188 -14.675781 C 16.949219 -14.222656 16.90625 -13.890625 16.867188 -13.726562 C 16.867188 -13.558594 16.824219 -13.476562 16.742188 -13.394531 C 16.660156 -13.3125 16.496094 -13.230469 16.246094 -13.1875 L 7.6875 -13.1875 C 7.773438 -13.683594 7.8125 -13.972656 7.8125 -14.097656 C 7.894531 -14.261719 7.9375 -14.386719 7.980469 -14.46875 C 8.0625 -14.550781 8.144531 -14.632812 8.226562 -14.632812 C 8.308594 -14.675781 8.558594 -14.675781 8.929688 -14.675781 Z M 8.929688 -14.675781 "/></g></g></g><g fill="#ec1d27" fill-opacity="1"><g transform="translate(122.467834, 220.974067)"><g/></g></g><g fill="#ec1d27" fill-opacity="1"><g transform="translate(134.867415, 220.974067)"><g><path d="M 2.8125 -28.9375 C 3.222656 -28.605469 3.515625 -28.402344 3.636719 -28.234375 C 3.886719 -27.988281 4.050781 -27.78125 4.132812 -27.613281 C 4.214844 -27.492188 4.214844 -27.285156 4.214844 -27.035156 C 4.214844 -26.953125 4.175781 -26.707031 4.09375 -26.332031 L 2.769531 -16.867188 L 1.238281 -5.828125 L 0.414062 0 L 0.785156 0 C 2.316406 0 3.347656 -0.0429688 3.925781 -0.125 C 4.753906 -0.207031 5.332031 -0.453125 5.703125 -0.785156 C 6.078125 -1.117188 6.367188 -1.695312 6.53125 -2.480469 C 6.695312 -3.058594 6.863281 -4.175781 7.109375 -5.828125 L 8.351562 -14.675781 L 17.445312 -14.675781 L 16.207031 -5.828125 L 15.378906 0 L 15.792969 0 C 17.363281 0 18.4375 -0.0429688 19.015625 -0.125 C 20.007812 -0.289062 20.710938 -0.621094 21.042969 -1.15625 C 21.289062 -1.570312 21.496094 -2.148438 21.664062 -2.894531 C 21.746094 -3.390625 21.910156 -4.382812 22.074219 -5.828125 L 23.316406 -14.675781 C 23.5625 -16.246094 23.6875 -17.320312 23.6875 -17.816406 L 23.6875 -18.230469 C 23.6875 -18.976562 23.5625 -19.472656 23.316406 -19.761719 C 23.027344 -20.089844 22.488281 -20.339844 21.703125 -20.421875 C 21.207031 -20.503906 20.296875 -20.503906 18.976562 -20.503906 L 9.175781 -20.503906 L 9.550781 -23.109375 C 9.839844 -24.804688 10.003906 -25.921875 10.003906 -26.457031 C 10.046875 -26.621094 10.046875 -26.746094 10.046875 -26.828125 C 10.046875 -27.449219 9.921875 -27.90625 9.671875 -28.195312 C 9.507812 -28.441406 9.175781 -28.648438 8.679688 -28.730469 C 8.308594 -28.855469 7.773438 -28.9375 7.070312 -28.9375 Z M 2.8125 -28.9375 "/></g></g></g><g fill="#ec1d27" fill-opacity="1"><g transform="translate(158.963933, 220.974067)"><g><path d="M 2.851562 -20.503906 L 2.066406 -14.675781 C 1.984375 -13.929688 1.820312 -12.609375 1.488281 -10.542969 C 1.199219 -8.515625 0.992188 -6.945312 0.828125 -5.828125 C 0.621094 -4.507812 0.496094 -3.554688 0.453125 -3.058594 C 0.453125 -2.769531 0.414062 -2.480469 0.414062 -2.230469 C 0.414062 -1.734375 0.496094 -1.324219 0.621094 -0.992188 C 0.867188 -0.578125 1.324219 -0.289062 2.066406 -0.164062 C 2.605469 -0.0820312 3.554688 0 4.960938 0 L 15.875 0 C 17.320312 0 18.3125 -0.0820312 18.851562 -0.164062 C 19.636719 -0.332031 20.214844 -0.621094 20.546875 -1.074219 C 20.792969 -1.445312 21.042969 -2.027344 21.207031 -2.8125 C 21.332031 -3.347656 21.496094 -4.339844 21.664062 -5.828125 L 22.902344 -14.675781 C 23.109375 -16.207031 23.234375 -17.199219 23.273438 -17.695312 L 23.273438 -18.230469 C 23.273438 -18.808594 23.191406 -19.265625 23.027344 -19.554688 C 22.820312 -19.96875 22.363281 -20.257812 21.621094 -20.339844 C 21.082031 -20.464844 19.84375 -20.503906 17.859375 -20.503906 L 17.03125 -14.675781 L 15.792969 -5.828125 L 8.144531 -5.828125 C 7.605469 -5.828125 7.277344 -5.828125 7.109375 -5.871094 C 6.988281 -5.953125 6.902344 -5.996094 6.820312 -6.078125 C 6.820312 -6.160156 6.78125 -6.324219 6.78125 -6.492188 C 6.820312 -6.65625 6.863281 -6.902344 6.902344 -7.316406 L 7.9375 -14.675781 C 8.144531 -16.246094 8.269531 -17.199219 8.269531 -17.527344 C 8.351562 -17.859375 8.351562 -18.148438 8.351562 -18.394531 C 8.351562 -18.976562 8.269531 -19.386719 8.0625 -19.636719 C 7.8125 -20.050781 7.277344 -20.296875 6.40625 -20.378906 C 5.871094 -20.464844 4.671875 -20.503906 2.851562 -20.503906 Z M 2.851562 -20.503906 "/></g></g></g><g fill="#ec1d27" fill-opacity="1"><g transform="translate(182.6058, 220.974067)"><g><path d="M 2.480469 -14.632812 L 2.273438 -13.144531 L 1.445312 -7.316406 L 1.238281 -5.789062 L 0.414062 0 C 2.191406 0 3.347656 -0.0429688 3.886719 -0.0820312 C 4.628906 -0.207031 5.207031 -0.414062 5.539062 -0.660156 C 5.953125 -0.992188 6.285156 -1.488281 6.449219 -2.191406 C 6.613281 -2.769531 6.863281 -3.96875 7.109375 -5.789062 L 7.316406 -7.316406 L 8.144531 -13.144531 C 8.226562 -13.601562 8.269531 -13.890625 8.269531 -14.015625 C 8.351562 -14.261719 8.476562 -14.425781 8.558594 -14.511719 C 8.679688 -14.59375 8.804688 -14.632812 8.972656 -14.632812 C 9.054688 -14.675781 9.175781 -14.675781 9.300781 -14.675781 C 9.46875 -14.675781 9.671875 -14.675781 9.878906 -14.632812 L 17.445312 -14.632812 L 17.238281 -13.144531 L 16.410156 -7.316406 L 16.207031 -5.789062 L 15.378906 0 C 17.402344 0 18.726562 -0.0820312 19.304688 -0.164062 C 20.007812 -0.332031 20.503906 -0.578125 20.835938 -0.949219 C 21.167969 -1.28125 21.371094 -1.820312 21.539062 -2.480469 C 21.703125 -3.019531 21.867188 -4.132812 22.074219 -5.789062 L 22.28125 -7.316406 L 23.109375 -13.144531 L 23.316406 -14.632812 C 23.5625 -16.453125 23.6875 -17.652344 23.6875 -18.191406 L 23.6875 -18.480469 C 23.644531 -19.183594 23.441406 -19.679688 23.109375 -19.925781 C 22.859375 -20.175781 22.449219 -20.296875 21.910156 -20.378906 C 21.414062 -20.464844 20.628906 -20.464844 19.511719 -20.464844 L 7.894531 -20.464844 C 6.820312 -20.464844 6.035156 -20.464844 5.539062 -20.378906 C 4.878906 -20.296875 4.382812 -20.132812 4.050781 -19.882812 C 3.636719 -19.59375 3.308594 -19.058594 3.058594 -18.273438 C 2.933594 -17.734375 2.726562 -16.535156 2.480469 -14.632812 Z M 2.480469 -14.632812 "/></g></g></g><g fill="#ec1d27" fill-opacity="1"><g transform="translate(206.660993, 220.974067)"><g><path d="M 18.191406 -23.109375 L 17.816406 -20.503906 L 8.183594 -20.503906 C 6.613281 -20.503906 5.5 -20.464844 4.917969 -20.339844 C 4.257812 -20.257812 3.71875 -20.007812 3.390625 -19.679688 C 3.058594 -19.347656 2.8125 -18.808594 2.605469 -18.066406 C 2.480469 -17.527344 2.316406 -16.410156 2.066406 -14.675781 C 1.902344 -13.683594 1.695312 -12.238281 1.40625 -10.253906 C 1.15625 -8.269531 0.949219 -6.820312 0.828125 -5.828125 C 0.660156 -4.507812 0.539062 -3.636719 0.453125 -3.140625 C 0.453125 -2.8125 0.414062 -2.480469 0.414062 -2.230469 C 0.414062 -1.570312 0.578125 -1.074219 0.828125 -0.742188 C 1.074219 -0.496094 1.488281 -0.289062 2.066406 -0.164062 C 2.644531 -0.0820312 3.886719 0 5.789062 0 L 15.046875 0 C 16.90625 0 18.148438 -0.0429688 18.726562 -0.125 C 19.347656 -0.246094 19.800781 -0.414062 20.132812 -0.621094 C 20.585938 -0.949219 20.917969 -1.570312 21.125 -2.398438 C 21.289062 -2.933594 21.457031 -4.09375 21.664062 -5.828125 L 21.867188 -7.359375 L 24.886719 -28.9375 C 23.109375 -28.9375 21.953125 -28.9375 21.371094 -28.855469 C 20.585938 -28.773438 20.007812 -28.523438 19.636719 -28.195312 C 19.304688 -27.90625 19.015625 -27.367188 18.808594 -26.621094 C 18.644531 -26.042969 18.4375 -24.886719 18.191406 -23.109375 Z M 9.34375 -14.675781 L 16.992188 -14.675781 L 16 -7.359375 C 15.914062 -6.945312 15.875 -6.695312 15.792969 -6.53125 C 15.75 -6.285156 15.667969 -6.117188 15.542969 -6.035156 C 15.460938 -5.953125 15.335938 -5.910156 15.171875 -5.871094 C 15.007812 -5.871094 14.675781 -5.828125 14.097656 -5.828125 L 6.695312 -5.828125 L 7.730469 -13.144531 C 7.8125 -13.558594 7.855469 -13.847656 7.855469 -13.972656 C 7.9375 -14.222656 7.980469 -14.34375 8.0625 -14.425781 C 8.144531 -14.550781 8.308594 -14.632812 8.476562 -14.632812 C 8.640625 -14.675781 8.929688 -14.675781 9.34375 -14.675781 Z M 9.34375 -14.675781 "/></g></g></g><g fill="#ec1d27" fill-opacity="1"><g transform="translate(230.67485, 220.974067)"><g><path d="M 2.480469 -14.675781 L 0.414062 0 C 2.644531 0 4.050781 -0.0820312 4.628906 -0.207031 C 5.207031 -0.371094 5.621094 -0.621094 5.910156 -0.949219 C 6.242188 -1.324219 6.449219 -1.902344 6.613281 -2.644531 C 6.738281 -3.183594 6.902344 -4.214844 7.109375 -5.789062 L 8.101562 -12.9375 C 8.183594 -13.476562 8.269531 -13.808594 8.308594 -13.972656 C 8.390625 -14.222656 8.476562 -14.386719 8.640625 -14.46875 C 8.765625 -14.550781 8.929688 -14.632812 9.136719 -14.632812 C 9.34375 -14.675781 9.757812 -14.675781 10.375 -14.675781 L 17.402344 -14.675781 C 19.140625 -14.675781 20.257812 -14.71875 20.792969 -14.757812 C 21.664062 -14.839844 22.28125 -15.046875 22.65625 -15.378906 C 23.066406 -15.710938 23.355469 -16.289062 23.5625 -17.074219 C 23.730469 -17.652344 23.894531 -18.769531 24.140625 -20.464844 L 8.269531 -20.464844 C 6.863281 -20.464844 5.910156 -20.421875 5.332031 -20.339844 C 4.671875 -20.257812 4.132812 -20.007812 3.804688 -19.636719 C 3.472656 -19.304688 3.183594 -18.6875 2.976562 -17.777344 C 2.894531 -17.28125 2.726562 -16.246094 2.480469 -14.675781 Z M 2.480469 -14.675781 "/></g></g></g><g fill="#ec1d27" fill-opacity="1"><g transform="translate(254.564699, 220.974067)"><g><path d="M 8.847656 -20.503906 C 6.945312 -20.503906 5.703125 -20.464844 5.125 -20.378906 C 4.382812 -20.296875 3.804688 -20.050781 3.390625 -19.679688 C 3.019531 -19.347656 2.726562 -18.644531 2.523438 -17.652344 C 2.4375 -17.15625 2.273438 -16.207031 2.027344 -14.71875 L 0.785156 -5.871094 C 0.578125 -4.214844 0.453125 -3.140625 0.414062 -2.5625 L 0.414062 -2.273438 C 0.414062 -1.695312 0.496094 -1.28125 0.660156 -0.992188 C 0.910156 -0.621094 1.324219 -0.371094 1.902344 -0.207031 C 2.480469 -0.125 3.554688 -0.0429688 5.207031 -0.0429688 L 20.835938 -0.0429688 L 20.835938 -0.703125 C 20.835938 -1.941406 20.835938 -2.769531 20.753906 -3.265625 C 20.710938 -4.175781 20.546875 -4.753906 20.214844 -5.085938 C 19.96875 -5.414062 19.511719 -5.621094 18.851562 -5.703125 C 18.394531 -5.789062 17.363281 -5.828125 15.75 -5.828125 L 6.65625 -5.828125 C 6.738281 -6.285156 6.78125 -6.574219 6.78125 -6.695312 C 6.820312 -6.945312 6.863281 -7.109375 6.945312 -7.191406 C 7.027344 -7.277344 7.152344 -7.316406 7.277344 -7.316406 C 7.398438 -7.359375 7.605469 -7.359375 7.894531 -7.359375 L 16.578125 -7.359375 C 18.023438 -7.359375 19.015625 -7.398438 19.554688 -7.484375 C 20.378906 -7.566406 20.960938 -7.8125 21.332031 -8.144531 C 21.664062 -8.515625 21.953125 -9.09375 22.117188 -9.878906 C 22.28125 -10.417969 22.449219 -11.492188 22.65625 -13.144531 L 22.902344 -14.71875 C 23.066406 -16.039062 23.191406 -16.90625 23.234375 -17.363281 C 23.273438 -17.734375 23.273438 -18.023438 23.273438 -18.273438 C 23.273438 -19.097656 23.109375 -19.679688 22.695312 -19.96875 C 22.363281 -20.214844 21.746094 -20.378906 20.835938 -20.464844 C 20.339844 -20.503906 19.347656 -20.503906 17.859375 -20.503906 Z M 8.929688 -14.675781 L 16.992188 -14.675781 C 16.949219 -14.222656 16.90625 -13.890625 16.867188 -13.726562 C 16.867188 -13.558594 16.824219 -13.476562 16.742188 -13.394531 C 16.660156 -13.3125 16.496094 -13.230469 16.246094 -13.1875 L 7.6875 -13.1875 C 7.773438 -13.683594 7.8125 -13.972656 7.8125 -14.097656 C 7.894531 -14.261719 7.9375 -14.386719 7.980469 -14.46875 C 8.0625 -14.550781 8.144531 -14.632812 8.226562 -14.632812 C 8.308594 -14.675781 8.558594 -14.675781 8.929688 -14.675781 Z M 8.929688 -14.675781 "/></g></g></g><g fill="#ec1d27" fill-opacity="1"><g transform="translate(278.206566, 220.974067)"><g><path d="M 18.191406 -23.109375 L 17.816406 -20.503906 L 8.183594 -20.503906 C 6.613281 -20.503906 5.5 -20.464844 4.917969 -20.339844 C 4.257812 -20.257812 3.71875 -20.007812 3.390625 -19.679688 C 3.058594 -19.347656 2.8125 -18.808594 2.605469 -18.066406 C 2.480469 -17.527344 2.316406 -16.410156 2.066406 -14.675781 C 1.902344 -13.683594 1.695312 -12.238281 1.40625 -10.253906 C 1.15625 -8.269531 0.949219 -6.820312 0.828125 -5.828125 C 0.660156 -4.507812 0.539062 -3.636719 0.453125 -3.140625 C 0.453125 -2.8125 0.414062 -2.480469 0.414062 -2.230469 C 0.414062 -1.570312 0.578125 -1.074219 0.828125 -0.742188 C 1.074219 -0.496094 1.488281 -0.289062 2.066406 -0.164062 C 2.644531 -0.0820312 3.886719 0 5.789062 0 L 15.046875 0 C 16.90625 0 18.148438 -0.0429688 18.726562 -0.125 C 19.347656 -0.246094 19.800781 -0.414062 20.132812 -0.621094 C 20.585938 -0.949219 20.917969 -1.570312 21.125 -2.398438 C 21.289062 -2.933594 21.457031 -4.09375 21.664062 -5.828125 L 21.867188 -7.359375 L 24.886719 -28.9375 C 23.109375 -28.9375 21.953125 -28.9375 21.371094 -28.855469 C 20.585938 -28.773438 20.007812 -28.523438 19.636719 -28.195312 C 19.304688 -27.90625 19.015625 -27.367188 18.808594 -26.621094 C 18.644531 -26.042969 18.4375 -24.886719 18.191406 -23.109375 Z M 9.34375 -14.675781 L 16.992188 -14.675781 L 16 -7.359375 C 15.914062 -6.945312 15.875 -6.695312 15.792969 -6.53125 C 15.75 -6.285156 15.667969 -6.117188 15.542969 -6.035156 C 15.460938 -5.953125 15.335938 -5.910156 15.171875 -5.871094 C 15.007812 -5.871094 14.675781 -5.828125 14.097656 -5.828125 L 6.695312 -5.828125 L 7.730469 -13.144531 C 7.8125 -13.558594 7.855469 -13.847656 7.855469 -13.972656 C 7.9375 -14.222656 7.980469 -14.34375 8.0625 -14.425781 C 8.144531 -14.550781 8.308594 -14.632812 8.476562 -14.632812 C 8.640625 -14.675781 8.929688 -14.675781 9.34375 -14.675781 Z M 9.34375 -14.675781 "/></g></g></g><g fill="#ec1d27" fill-opacity="1"><g transform="translate(302.220411, 220.974067)"><g><path d="M 15.214844 -25.09375 L 14.71875 -25.09375 C 13.269531 -25.09375 12.277344 -25.09375 11.699219 -25.011719 C 10.871094 -24.929688 10.253906 -24.679688 9.878906 -24.308594 C 9.507812 -23.9375 9.21875 -23.316406 9.011719 -22.40625 C 8.929688 -21.910156 8.765625 -20.875 8.558594 -19.304688 L 8.308594 -17.734375 L 6.285156 -17.734375 C 4.796875 -17.734375 3.71875 -17.734375 3.058594 -17.570312 C 2.398438 -17.445312 1.902344 -17.15625 1.570312 -16.703125 C 1.40625 -16.453125 1.238281 -16.082031 1.074219 -15.585938 C 0.949219 -15.089844 0.828125 -14.675781 0.742188 -14.179688 C 0.660156 -13.726562 0.578125 -12.980469 0.414062 -11.945312 L 7.523438 -11.945312 L 6.492188 -4.589844 C 8.144531 -4.589844 9.21875 -4.628906 9.757812 -4.671875 C 10.707031 -4.753906 11.367188 -5.003906 11.742188 -5.332031 C 12.195312 -5.746094 12.527344 -6.53125 12.734375 -7.6875 C 12.855469 -8.183594 12.980469 -9.09375 13.144531 -10.375 L 13.394531 -11.945312 L 14.59375 -11.945312 C 16.328125 -11.945312 17.527344 -11.988281 18.230469 -12.070312 C 18.976562 -12.152344 19.511719 -12.402344 19.882812 -12.734375 C 20.257812 -13.0625 20.503906 -13.558594 20.671875 -14.222656 C 20.835938 -14.921875 21.042969 -16.082031 21.289062 -17.734375 L 14.179688 -17.734375 Z M 15.214844 -25.09375 "/></g></g></g><g fill="#000000" fill-opacity="1"><g transform="translate(109.284714, 246.268827)"><g><path d="M 9.28125 -7.546875 L 3.625 -2.0625 L 8.375 -2.0625 L 7.953125 0 L -0.265625 0 L 0.0625 -1.625 L 5.71875 -7.125 L 1.296875 -7.125 L 1.703125 -9.171875 L 9.609375 -9.171875 Z M 9.28125 -7.546875 "/></g></g></g><g fill="#000000" fill-opacity="1"><g transform="translate(123.416813, 246.268827)"><g><path d="M 8.125 -4.109375 C 8.125 -3.765625 8.078125 -3.375 7.984375 -2.9375 L 2.765625 -2.9375 C 2.847656 -2.164062 3.382812 -1.78125 4.375 -1.78125 C 4.6875 -1.78125 4.988281 -1.828125 5.28125 -1.921875 C 5.582031 -2.023438 5.851562 -2.171875 6.09375 -2.359375 L 7.125 -0.796875 C 6.300781 -0.179688 5.296875 0.125 4.109375 0.125 C 3.347656 0.125 2.679688 -0.0078125 2.109375 -0.28125 C 1.546875 -0.550781 1.109375 -0.925781 0.796875 -1.40625 C 0.484375 -1.894531 0.328125 -2.46875 0.328125 -3.125 C 0.328125 -3.894531 0.507812 -4.59375 0.875 -5.21875 C 1.238281 -5.84375 1.742188 -6.332031 2.390625 -6.6875 C 3.046875 -7.039062 3.789062 -7.21875 4.625 -7.21875 C 5.332031 -7.21875 5.953125 -7.085938 6.484375 -6.828125 C 7.015625 -6.578125 7.421875 -6.210938 7.703125 -5.734375 C 7.984375 -5.265625 8.125 -4.722656 8.125 -4.109375 Z M 4.515625 -5.453125 C 4.109375 -5.453125 3.769531 -5.34375 3.5 -5.125 C 3.226562 -4.914062 3.03125 -4.625 2.90625 -4.25 L 5.828125 -4.25 C 5.835938 -4.625 5.71875 -4.914062 5.46875 -5.125 C 5.226562 -5.34375 4.910156 -5.453125 4.515625 -5.453125 Z M 4.515625 -5.453125 "/></g></g></g><g fill="#000000" fill-opacity="1"><g transform="translate(137.012151, 246.268827)"><g><path d="M 3.703125 -6.3125 C 4.296875 -6.914062 5.15625 -7.21875 6.28125 -7.21875 L 5.84375 -4.984375 C 5.625 -5.003906 5.4375 -5.015625 5.28125 -5.015625 C 4.71875 -5.015625 4.269531 -4.878906 3.9375 -4.609375 C 3.601562 -4.347656 3.378906 -3.929688 3.265625 -3.359375 L 2.578125 0 L 0.09375 0 L 1.5 -7.109375 L 3.875 -7.109375 Z M 3.703125 -6.3125 "/></g></g></g><g fill="#000000" fill-opacity="1"><g transform="translate(148.054578, 246.268827)"><g><path d="M 4.03125 0.125 C 3.28125 0.125 2.625 -0.0078125 2.0625 -0.28125 C 1.507812 -0.550781 1.078125 -0.929688 0.765625 -1.421875 C 0.460938 -1.910156 0.3125 -2.476562 0.3125 -3.125 C 0.3125 -3.894531 0.5 -4.585938 0.875 -5.203125 C 1.25 -5.828125 1.769531 -6.316406 2.4375 -6.671875 C 3.101562 -7.035156 3.851562 -7.21875 4.6875 -7.21875 C 5.4375 -7.21875 6.085938 -7.082031 6.640625 -6.8125 C 7.203125 -6.550781 7.632812 -6.175781 7.9375 -5.6875 C 8.25 -5.207031 8.40625 -4.644531 8.40625 -4 C 8.40625 -3.21875 8.21875 -2.515625 7.84375 -1.890625 C 7.46875 -1.265625 6.945312 -0.769531 6.28125 -0.40625 C 5.625 -0.0507812 4.875 0.125 4.03125 0.125 Z M 4.1875 -1.890625 C 4.675781 -1.890625 5.078125 -2.070312 5.390625 -2.4375 C 5.710938 -2.800781 5.875 -3.28125 5.875 -3.875 C 5.875 -4.289062 5.753906 -4.617188 5.515625 -4.859375 C 5.285156 -5.109375 4.957031 -5.234375 4.53125 -5.234375 C 4.03125 -5.234375 3.625 -5.046875 3.3125 -4.671875 C 3 -4.304688 2.84375 -3.828125 2.84375 -3.234375 C 2.84375 -2.816406 2.957031 -2.488281 3.1875 -2.25 C 3.425781 -2.007812 3.757812 -1.890625 4.1875 -1.890625 Z M 4.1875 -1.890625 "/></g></g></g><g fill="#000000" fill-opacity="1"><g transform="translate(162.003395, 246.268827)"><g/></g></g><g fill="#000000" fill-opacity="1"><g transform="translate(171.055872, 246.268827)"><g><path d="M 3.390625 -2.640625 C 3.378906 -2.523438 3.375 -2.445312 3.375 -2.40625 C 3.375 -2.007812 3.59375 -1.8125 4.03125 -1.8125 C 4.257812 -1.8125 4.503906 -1.878906 4.765625 -2.015625 L 5.09375 -0.296875 C 4.601562 -0.015625 3.984375 0.125 3.234375 0.125 C 2.503906 0.125 1.921875 -0.0546875 1.484375 -0.421875 C 1.054688 -0.796875 0.84375 -1.3125 0.84375 -1.96875 C 0.84375 -2.21875 0.863281 -2.441406 0.90625 -2.640625 L 1.375 -4.984375 L 0.328125 -4.984375 L 0.703125 -6.84375 L 1.75 -6.84375 L 2.109375 -8.6875 L 4.59375 -8.6875 L 4.234375 -6.84375 L 5.84375 -6.84375 L 5.484375 -4.984375 L 3.875 -4.984375 Z M 3.390625 -2.640625 "/></g></g></g><g fill="#000000" fill-opacity="1"><g transform="translate(182.150665, 246.268827)"><g><path d="M 4.03125 0.125 C 3.28125 0.125 2.625 -0.0078125 2.0625 -0.28125 C 1.507812 -0.550781 1.078125 -0.929688 0.765625 -1.421875 C 0.460938 -1.910156 0.3125 -2.476562 0.3125 -3.125 C 0.3125 -3.894531 0.5 -4.585938 0.875 -5.203125 C 1.25 -5.828125 1.769531 -6.316406 2.4375 -6.671875 C 3.101562 -7.035156 3.851562 -7.21875 4.6875 -7.21875 C 5.4375 -7.21875 6.085938 -7.082031 6.640625 -6.8125 C 7.203125 -6.550781 7.632812 -6.175781 7.9375 -5.6875 C 8.25 -5.207031 8.40625 -4.644531 8.40625 -4 C 8.40625 -3.21875 8.21875 -2.515625 7.84375 -1.890625 C 7.46875 -1.265625 6.945312 -0.769531 6.28125 -0.40625 C 5.625 -0.0507812 4.875 0.125 4.03125 0.125 Z M 4.1875 -1.890625 C 4.675781 -1.890625 5.078125 -2.070312 5.390625 -2.4375 C 5.710938 -2.800781 5.875 -3.28125 5.875 -3.875 C 5.875 -4.289062 5.753906 -4.617188 5.515625 -4.859375 C 5.285156 -5.109375 4.957031 -5.234375 4.53125 -5.234375 C 4.03125 -5.234375 3.625 -5.046875 3.3125 -4.671875 C 3 -4.304688 2.84375 -3.828125 2.84375 -3.234375 C 2.84375 -2.816406 2.957031 -2.488281 3.1875 -2.25 C 3.425781 -2.007812 3.757812 -1.890625 4.1875 -1.890625 Z M 4.1875 -1.890625 "/></g></g></g><g fill="#000000" fill-opacity="1"><g transform="translate(196.099479, 246.268827)"><g/></g></g><g fill="#000000" fill-opacity="1"><g transform="translate(205.151959, 246.268827)"><g><path d="M 5.5 -9.171875 L 3.671875 0 L 1.078125 0 L 2.5 -7.171875 L 0.796875 -7.171875 L 1.203125 -9.171875 Z M 5.5 -9.171875 "/></g></g></g><g fill="#000000" fill-opacity="1"><g transform="translate(215.696909, 246.268827)"><g><path d="M 3.96875 0.1875 C 2.914062 0.1875 2.078125 -0.125 1.453125 -0.75 C 0.835938 -1.375 0.53125 -2.242188 0.53125 -3.359375 C 0.53125 -4.472656 0.738281 -5.488281 1.15625 -6.40625 C 1.570312 -7.320312 2.148438 -8.039062 2.890625 -8.5625 C 3.640625 -9.09375 4.484375 -9.359375 5.421875 -9.359375 C 6.472656 -9.359375 7.304688 -9.046875 7.921875 -8.421875 C 8.535156 -7.796875 8.84375 -6.929688 8.84375 -5.828125 C 8.84375 -4.703125 8.632812 -3.679688 8.21875 -2.765625 C 7.8125 -1.859375 7.234375 -1.140625 6.484375 -0.609375 C 5.742188 -0.078125 4.90625 0.1875 3.96875 0.1875 Z M 4.21875 -1.9375 C 4.632812 -1.9375 4.992188 -2.140625 5.296875 -2.546875 C 5.609375 -2.960938 5.84375 -3.46875 6 -4.0625 C 6.15625 -4.65625 6.234375 -5.21875 6.234375 -5.75 C 6.234375 -6.257812 6.140625 -6.632812 5.953125 -6.875 C 5.765625 -7.113281 5.503906 -7.234375 5.171875 -7.234375 C 4.742188 -7.234375 4.378906 -7.023438 4.078125 -6.609375 C 3.773438 -6.203125 3.539062 -5.703125 3.375 -5.109375 C 3.21875 -4.515625 3.140625 -3.953125 3.140625 -3.421875 C 3.140625 -2.429688 3.5 -1.9375 4.21875 -1.9375 Z M 4.21875 -1.9375 "/></g></g></g><g fill="#000000" fill-opacity="1"><g transform="translate(229.907562, 246.268827)"><g><path d="M 3.96875 0.1875 C 2.914062 0.1875 2.078125 -0.125 1.453125 -0.75 C 0.835938 -1.375 0.53125 -2.242188 0.53125 -3.359375 C 0.53125 -4.472656 0.738281 -5.488281 1.15625 -6.40625 C 1.570312 -7.320312 2.148438 -8.039062 2.890625 -8.5625 C 3.640625 -9.09375 4.484375 -9.359375 5.421875 -9.359375 C 6.472656 -9.359375 7.304688 -9.046875 7.921875 -8.421875 C 8.535156 -7.796875 8.84375 -6.929688 8.84375 -5.828125 C 8.84375 -4.703125 8.632812 -3.679688 8.21875 -2.765625 C 7.8125 -1.859375 7.234375 -1.140625 6.484375 -0.609375 C 5.742188 -0.078125 4.90625 0.1875 3.96875 0.1875 Z M 4.21875 -1.9375 C 4.632812 -1.9375 4.992188 -2.140625 5.296875 -2.546875 C 5.609375 -2.960938 5.84375 -3.46875 6 -4.0625 C 6.15625 -4.65625 6.234375 -5.21875 6.234375 -5.75 C 6.234375 -6.257812 6.140625 -6.632812 5.953125 -6.875 C 5.765625 -7.113281 5.503906 -7.234375 5.171875 -7.234375 C 4.742188 -7.234375 4.378906 -7.023438 4.078125 -6.609375 C 3.773438 -6.203125 3.539062 -5.703125 3.375 -5.109375 C 3.21875 -4.515625 3.140625 -3.953125 3.140625 -3.421875 C 3.140625 -2.429688 3.5 -1.9375 4.21875 -1.9375 Z M 4.21875 -1.9375 "/></g></g></g><g fill="#000000" fill-opacity="1"><g transform="translate(244.118215, 246.268827)"><g><path d="M 1.328125 0.125 C 0.910156 0.125 0.566406 -0.00390625 0.296875 -0.265625 C 0.0351562 -0.523438 -0.09375 -0.851562 -0.09375 -1.25 C -0.09375 -1.71875 0.0625 -2.097656 0.375 -2.390625 C 0.6875 -2.679688 1.0625 -2.828125 1.5 -2.828125 C 1.925781 -2.828125 2.265625 -2.703125 2.515625 -2.453125 C 2.773438 -2.203125 2.90625 -1.875 2.90625 -1.46875 C 2.90625 -1.007812 2.75 -0.628906 2.4375 -0.328125 C 2.132812 -0.0234375 1.765625 0.125 1.328125 0.125 Z M 1.328125 0.125 "/></g></g></g><g fill="#000000" fill-opacity="1"><g transform="translate(253.065963, 246.268827)"><g><path d="M 1.328125 0.125 C 0.910156 0.125 0.566406 -0.00390625 0.296875 -0.265625 C 0.0351562 -0.523438 -0.09375 -0.851562 -0.09375 -1.25 C -0.09375 -1.71875 0.0625 -2.097656 0.375 -2.390625 C 0.6875 -2.679688 1.0625 -2.828125 1.5 -2.828125 C 1.925781 -2.828125 2.265625 -2.703125 2.515625 -2.453125 C 2.773438 -2.203125 2.90625 -1.875 2.90625 -1.46875 C 2.90625 -1.007812 2.75 -0.628906 2.4375 -0.328125 C 2.132812 -0.0234375 1.765625 0.125 1.328125 0.125 Z M 1.328125 0.125 "/></g></g></g><g fill="#000000" fill-opacity="1"><g transform="translate(262.013711, 246.268827)"><g><path d="M 1.328125 0.125 C 0.910156 0.125 0.566406 -0.00390625 0.296875 -0.265625 C 0.0351562 -0.523438 -0.09375 -0.851562 -0.09375 -1.25 C -0.09375 -1.71875 0.0625 -2.097656 0.375 -2.390625 C 0.6875 -2.679688 1.0625 -2.828125 1.5 -2.828125 C 1.925781 -2.828125 2.265625 -2.703125 2.515625 -2.453125 C 2.773438 -2.203125 2.90625 -1.875 2.90625 -1.46875 C 2.90625 -1.007812 2.75 -0.628906 2.4375 -0.328125 C 2.132812 -0.0234375 1.765625 0.125 1.328125 0.125 Z M 1.328125 0.125 "/></g></g></g></svg>