<svg xmlns="http://www.w3.org/2000/svg" xmlns:xlink="http://www.w3.org/1999/xlink" width="500" zoomAndPan="magnify" viewBox="0 0 375 374.999991" height="500" preserveAspectRatio="xMidYMid meet" version="1.0"><defs><g/><clipPath id="e0e9913ea3"><path d="M 76.878906 135 L 95 135 L 95 163 L 76.878906 163 Z M 76.878906 135 " clip-rule="nonzero"/></clipPath><clipPath id="d4a5b18ff4"><path d="M 250 121 L 298.128906 121 L 298.128906 166 L 250 166 Z M 250 121 " clip-rule="nonzero"/></clipPath><clipPath id="2fce60841f"><path d="M 149 37.5 L 224 37.5 L 224 201.75 L 149 201.75 Z M 149 37.5 " clip-rule="nonzero"/></clipPath></defs><g clip-path="url(#e0e9913ea3)"><path fill="#ec1d27" d="M 92.789062 135.132812 L 94.636719 137.929688 C 87.59375 145.261719 81.601562 153.59375 76.878906 162.695312 C 80.832031 152.757812 86.21875 143.496094 92.789062 135.132812 " fill-opacity="1" fill-rule="nonzero"/></g><path fill="#ec1d27" d="M 109.359375 125.164062 C 105.117188 128.207031 101.117188 131.558594 97.375 135.183594 L 95.308594 132.054688 C 98.722656 128.007812 102.417969 124.191406 106.378906 120.652344 L 109.359375 125.164062 " fill-opacity="1" fill-rule="nonzero"/><path fill="#ec1d27" d="M 127.472656 114.683594 C 122.234375 117.058594 117.222656 119.839844 112.484375 122.996094 L 109.269531 118.128906 C 113.886719 114.257812 118.8125 110.722656 124.023438 107.566406 L 127.472656 114.683594 " fill-opacity="1" fill-rule="nonzero"/><path fill="#ec1d27" d="M 152.632812 106.890625 C 145.101562 108.222656 137.855469 110.351562 130.972656 113.171875 L 127.324219 105.644531 C 134.648438 101.523438 142.480469 98.132812 150.714844 95.589844 L 152.632812 106.890625 " fill-opacity="1" fill-rule="nonzero"/><path fill="#ec1d27" d="M 187.179688 90.167969 L 186.4375 106.328125 C 181.484375 105.621094 176.425781 105.257812 171.289062 105.257812 C 166.230469 105.257812 161.257812 105.605469 156.386719 106.296875 L 154.398438 94.519531 C 164.714844 91.691406 175.621094 90.167969 186.898438 90.167969 L 187.179688 90.167969 " fill-opacity="1" fill-rule="nonzero"/><path fill="#ec1d27" d="M 228.855469 97.539062 L 219.640625 116.875 C 210.515625 112.199219 200.625 108.808594 190.207031 106.945312 L 190.984375 90.238281 C 204.285156 90.671875 217.03125 93.21875 228.855469 97.539062 " fill-opacity="1" fill-rule="nonzero"/><path fill="#ec1d27" d="M 265.710938 119.140625 L 247.433594 137.414062 C 240.269531 130.046875 232.042969 123.71875 223 118.667969 L 232.421875 98.90625 C 244.71875 103.832031 255.953125 110.714844 265.710938 119.140625 " fill-opacity="1" fill-rule="nonzero"/><g clip-path="url(#d4a5b18ff4)"><path fill="#ec1d27" d="M 298.128906 165.851562 L 267.269531 165.851562 C 262.78125 156.453125 256.964844 147.816406 250.042969 140.1875 L 268.554688 121.671875 C 281.765625 133.839844 292 148.933594 298.128906 165.851562 " fill-opacity="1" fill-rule="nonzero"/></g><path fill="#ec1d27" d="M 181.035156 116.914062 C 181.035156 116.914062 180.5625 116.804688 179.679688 116.597656 C 179.238281 116.496094 178.691406 116.367188 178.050781 116.21875 C 177.433594 116.097656 176.726562 115.960938 175.933594 115.808594 C 175.148438 115.640625 174.25 115.511719 173.269531 115.363281 C 172.289062 115.199219 171.226562 115.070312 170.085938 114.949219 C 167.808594 114.675781 165.21875 114.535156 162.390625 114.449219 C 159.558594 114.441406 156.484375 114.46875 153.242188 114.773438 C 150.003906 115.078125 146.582031 115.496094 143.09375 116.21875 C 139.601562 116.925781 136.019531 117.820312 132.445312 118.96875 C 131.550781 119.25 130.664062 119.574219 129.769531 119.875 C 129.335938 120.027344 128.839844 120.183594 128.460938 120.339844 L 127.113281 120.867188 C 126.214844 121.21875 125.316406 121.570312 124.414062 121.921875 L 121.816406 123.082031 C 120.070312 123.816406 118.382812 124.730469 116.679688 125.578125 C 115.816406 125.992188 115.011719 126.496094 114.179688 126.953125 C 113.359375 127.429688 112.523438 127.875 111.722656 128.367188 C 110.925781 128.871094 110.132812 129.375 109.34375 129.875 L 108.164062 130.625 L 107.027344 131.425781 C 106.269531 131.957031 105.515625 132.484375 104.769531 133.007812 C 104.039062 133.554688 103.328125 134.121094 102.617188 134.667969 C 99.757812 136.859375 97.199219 139.222656 94.820312 141.515625 C 93.683594 142.710938 92.546875 143.851562 91.507812 145.011719 C 90.507812 146.203125 89.476562 147.304688 88.601562 148.453125 C 86.792969 150.707031 85.273438 152.882812 83.980469 154.847656 C 83.363281 155.851562 82.785156 156.785156 82.25 157.652344 C 81.742188 158.535156 81.308594 159.367188 80.902344 160.105469 C 80.058594 161.578125 79.558594 162.8125 79.152344 163.625 C 78.765625 164.445312 78.558594 164.882812 78.558594 164.882812 C 78.558594 164.882812 78.746094 164.4375 79.097656 163.601562 C 79.46875 162.773438 79.917969 161.511719 80.695312 160.003906 C 81.074219 159.246094 81.476562 158.394531 81.941406 157.484375 C 82.445312 156.589844 82.984375 155.621094 83.5625 154.589844 C 84.773438 152.558594 86.214844 150.300781 87.941406 147.945312 C 88.777344 146.746094 89.769531 145.59375 90.730469 144.34375 C 91.730469 143.125 92.828125 141.921875 93.929688 140.660156 C 96.242188 138.234375 98.738281 135.71875 101.550781 133.363281 C 102.25 132.777344 102.949219 132.167969 103.671875 131.578125 C 104.40625 131.011719 105.152344 130.441406 105.898438 129.867188 L 107.027344 129 L 108.199219 128.183594 C 108.980469 127.640625 109.769531 127.089844 110.5625 126.539062 C 111.359375 126 112.191406 125.507812 113.011719 124.988281 C 113.84375 124.484375 114.648438 123.929688 115.507812 123.46875 C 117.21875 122.523438 118.898438 121.519531 120.691406 120.671875 L 123.34375 119.351562 C 124.226562 118.960938 125.113281 118.570312 125.992188 118.179688 L 127.316406 117.59375 C 127.816406 117.367188 128.238281 117.222656 128.699219 117.035156 C 129.609375 116.683594 130.507812 116.3125 131.417969 115.980469 C 135.050781 114.640625 138.714844 113.554688 142.304688 112.664062 C 145.894531 111.761719 149.433594 111.167969 152.800781 110.710938 C 156.175781 110.25 159.394531 110.074219 162.371094 109.957031 C 165.347656 109.917969 168.085938 109.953125 170.507812 110.136719 C 171.71875 110.210938 172.851562 110.300781 173.894531 110.429688 C 174.941406 110.542969 175.902344 110.640625 176.785156 110.785156 C 177.660156 110.917969 178.441406 111.035156 179.125 111.140625 C 179.769531 111.261719 180.320312 111.363281 180.765625 111.449219 C 181.660156 111.617188 182.132812 111.707031 182.132812 111.707031 L 181.035156 116.914062 " fill-opacity="1" fill-rule="nonzero"/><g clip-path="url(#2fce60841f)"><path fill="#ec1d27" d="M 174.472656 174.007812 L 223.957031 37.5 L 163.71875 170.859375 C 155.796875 171.535156 149.574219 178.171875 149.574219 186.269531 C 149.574219 194.816406 156.503906 201.75 165.050781 201.75 C 173.601562 201.75 180.535156 194.816406 180.535156 186.269531 C 180.535156 181.269531 178.152344 176.835938 174.472656 174.007812 " fill-opacity="1" fill-rule="nonzero"/></g><path fill="#ec1d27" d="M 244.082031 171.691406 L 241.6875 167.683594 L 253.4375 160.664062 L 255.832031 164.667969 L 244.082031 171.691406 " fill-opacity="1" fill-rule="nonzero"/><path fill="#ec1d27" d="M 232.1875 155.015625 L 229.015625 151.59375 L 239.050781 142.28125 L 242.222656 145.703125 L 232.1875 155.015625 " fill-opacity="1" fill-rule="nonzero"/><path fill="#ec1d27" d="M 217.089844 141.175781 L 213.269531 138.488281 L 221.152344 127.296875 L 224.96875 129.984375 L 217.089844 141.175781 " fill-opacity="1" fill-rule="nonzero"/><path fill="#ec1d27" d="M 199.441406 130.777344 L 195.148438 128.941406 L 200.53125 116.355469 L 204.820312 118.191406 L 199.441406 130.777344 " fill-opacity="1" fill-rule="nonzero"/><g fill="#000000" fill-opacity="1"><g transform="translate(42.457033, 241.887817)"><g><path d="M 15.558594 0.609375 C 25.144531 0.609375 32.78125 -5.28125 34.40625 -14.5 C 36.03125 -23.722656 30.464844 -29.613281 20.839844 -29.613281 C 11.25 -29.613281 3.65625 -23.722656 2.03125 -14.5 C 0.40625 -5.28125 5.929688 0.609375 15.558594 0.609375 Z M 16.652344 -5.808594 C 11.738281 -5.808594 8.976562 -9.300781 9.871094 -14.5 C 10.765625 -19.699219 14.785156 -23.195312 19.742188 -23.195312 C 24.65625 -23.195312 27.460938 -19.699219 26.523438 -14.5 C 25.632812 -9.300781 21.609375 -5.808594 16.652344 -5.808594 Z M 16.652344 -5.808594 "/></g></g></g><g fill="#000000" fill-opacity="1"><g transform="translate(77.428459, 241.887817)"><g><path d="M 0.0820312 0 L 7.066406 0 L 9.140625 -11.617188 C 9.546875 -13.933594 11.375 -15.597656 13.40625 -15.597656 C 15.476562 -15.597656 16.492188 -13.890625 16.085938 -11.535156 L 14.015625 0 L 21 0 L 23.273438 -12.917969 C 24.167969 -17.832031 21.773438 -21.40625 17.425781 -21.40625 C 14.746094 -21.40625 12.550781 -20.105469 10.519531 -17.464844 L 10.15625 -17.464844 L 10.765625 -20.878906 L 3.777344 -20.878906 Z M 0.0820312 0 "/></g></g></g><g fill="#000000" fill-opacity="1"><g transform="translate(102.001875, 241.887817)"><g><path d="M 10.722656 0.527344 C 16.042969 0.527344 20.960938 -2.113281 22.664062 -6.132812 L 16.734375 -6.988281 C 15.84375 -5.363281 14.015625 -4.183594 11.941406 -4.183594 C 9.261719 -4.183594 7.71875 -5.929688 7.800781 -8.570312 L 23.761719 -8.570312 C 23.882812 -8.894531 24.046875 -9.871094 24.128906 -10.359375 C 25.347656 -17.101562 21.609375 -21.40625 14.703125 -21.40625 C 7.800781 -21.40625 2.152344 -17.140625 0.933594 -10.480469 C -0.242188 -3.777344 3.777344 0.527344 10.722656 0.527344 Z M 8.367188 -12.1875 C 9.179688 -14.90625 11.210938 -16.695312 13.769531 -16.695312 C 16.289062 -16.695312 17.792969 -14.664062 17.464844 -12.1875 Z M 8.367188 -12.1875 "/></g></g></g><g fill="#000000" fill-opacity="1"><g transform="translate(127.062706, 241.887817)"><g/></g></g><g fill="#000000" fill-opacity="1"><g transform="translate(136.932697, 241.887817)"><g><path d="M 0.40625 0 L 8.246094 0 L 10.359375 -11.902344 L 21.121094 -11.902344 L 19.050781 0 L 26.890625 0 L 32.007812 -29.003906 L 24.128906 -29.003906 L 22.21875 -18.035156 L 11.414062 -18.035156 L 13.363281 -29.003906 L 5.523438 -29.003906 Z M 0.40625 0 "/></g></g></g><g fill="#000000" fill-opacity="1"><g transform="translate(167.923639, 241.887817)"><g><path d="M 7.109375 0.527344 C 9.789062 0.527344 11.984375 -0.773438 14.054688 -3.410156 L 14.421875 -3.410156 L 13.8125 0 L 20.796875 0 L 24.492188 -20.878906 L 17.507812 -20.878906 L 15.4375 -9.261719 C 15.03125 -6.945312 13.203125 -5.28125 11.171875 -5.28125 C 9.097656 -5.28125 8.082031 -6.988281 8.488281 -9.34375 L 10.519531 -20.878906 L 3.535156 -20.878906 L 1.257812 -7.960938 C 0.40625 -3.046875 2.761719 0.527344 7.109375 0.527344 Z M 7.109375 0.527344 "/></g></g></g><g fill="#000000" fill-opacity="1"><g transform="translate(192.497055, 241.887817)"><g><path d="M 0.0820312 0 L 7.066406 0 L 9.140625 -11.617188 C 9.546875 -13.933594 11.375 -15.597656 13.40625 -15.597656 C 15.476562 -15.597656 16.492188 -13.890625 16.085938 -11.535156 L 14.015625 0 L 21 0 L 23.273438 -12.917969 C 24.167969 -17.832031 21.773438 -21.40625 17.425781 -21.40625 C 14.746094 -21.40625 12.550781 -20.105469 10.519531 -17.464844 L 10.15625 -17.464844 L 10.765625 -20.878906 L 3.777344 -20.878906 Z M 0.0820312 0 "/></g></g></g><g fill="#000000" fill-opacity="1"><g transform="translate(217.070472, 241.887817)"><g><path d="M 8.246094 0.527344 C 11.25 0.527344 13.609375 -0.773438 15.394531 -3.007812 L 15.761719 -3.007812 L 15.234375 0 L 22.21875 0 L 27.539062 -30.222656 L 20.554688 -30.222656 L 18.402344 -17.871094 L 18.035156 -17.871094 C 17.019531 -20.105469 15.109375 -21.40625 12.105469 -21.40625 C 6.582031 -21.40625 2.070312 -17.101562 0.933594 -10.4375 C -0.242188 -3.738281 2.679688 0.527344 8.246094 0.527344 Z M 11.699219 -5.28125 C 8.976562 -5.28125 7.351562 -7.472656 7.921875 -10.4375 C 8.410156 -13.40625 10.804688 -15.597656 13.527344 -15.597656 C 16.289062 -15.597656 17.914062 -13.40625 17.386719 -10.4375 C 16.816406 -7.472656 14.460938 -5.28125 11.699219 -5.28125 Z M 11.699219 -5.28125 "/></g></g></g><g fill="#000000" fill-opacity="1"><g transform="translate(243.065495, 241.887817)"><g><path d="M 0.0820312 0 L 7.066406 0 L 8.9375 -10.519531 C 9.464844 -13.445312 11.453125 -15.394531 13.890625 -15.394531 C 14.949219 -15.394531 16.289062 -15.070312 17.386719 -14.5 L 18.523438 -20.757812 C 17.832031 -21.121094 16.980469 -21.285156 16.125 -21.285156 C 13.851562 -21.285156 11.902344 -19.945312 10.601562 -17.628906 L 10.195312 -17.628906 L 10.722656 -20.878906 L 3.777344 -20.878906 Z M 0.0820312 0 "/></g></g></g><g fill="#000000" fill-opacity="1"><g transform="translate(260.490268, 241.887817)"><g><path d="M 10.722656 0.527344 C 16.042969 0.527344 20.960938 -2.113281 22.664062 -6.132812 L 16.734375 -6.988281 C 15.84375 -5.363281 14.015625 -4.183594 11.941406 -4.183594 C 9.261719 -4.183594 7.71875 -5.929688 7.800781 -8.570312 L 23.761719 -8.570312 C 23.882812 -8.894531 24.046875 -9.871094 24.128906 -10.359375 C 25.347656 -17.101562 21.609375 -21.40625 14.703125 -21.40625 C 7.800781 -21.40625 2.152344 -17.140625 0.933594 -10.480469 C -0.242188 -3.777344 3.777344 0.527344 10.722656 0.527344 Z M 8.367188 -12.1875 C 9.179688 -14.90625 11.210938 -16.695312 13.769531 -16.695312 C 16.289062 -16.695312 17.792969 -14.664062 17.464844 -12.1875 Z M 8.367188 -12.1875 "/></g></g></g><g fill="#000000" fill-opacity="1"><g transform="translate(285.551088, 241.887817)"><g><path d="M 8.246094 0.527344 C 11.25 0.527344 13.609375 -0.773438 15.394531 -3.007812 L 15.761719 -3.007812 L 15.234375 0 L 22.21875 0 L 27.539062 -30.222656 L 20.554688 -30.222656 L 18.402344 -17.871094 L 18.035156 -17.871094 C 17.019531 -20.105469 15.109375 -21.40625 12.105469 -21.40625 C 6.582031 -21.40625 2.070312 -17.101562 0.933594 -10.4375 C -0.242188 -3.738281 2.679688 0.527344 8.246094 0.527344 Z M 11.699219 -5.28125 C 8.976562 -5.28125 7.351562 -7.472656 7.921875 -10.4375 C 8.410156 -13.40625 10.804688 -15.597656 13.527344 -15.597656 C 16.289062 -15.597656 17.914062 -13.40625 17.386719 -10.4375 C 16.816406 -7.472656 14.460938 -5.28125 11.699219 -5.28125 Z M 11.699219 -5.28125 "/></g></g></g><g fill="#000000" fill-opacity="1"><g transform="translate(311.546112, 241.887817)"><g><path d="M 6.378906 -5.320312 L 12.796875 -5.320312 L 13.933594 -11.859375 L 20.308594 -11.859375 L 21.164062 -16.816406 L 14.828125 -16.816406 L 15.964844 -23.195312 L 9.546875 -23.195312 L 8.410156 -16.816406 L 2.070312 -16.816406 L 1.21875 -11.859375 L 7.515625 -11.859375 Z M 6.378906 -5.320312 "/></g></g></g><g fill="#ec1d27" fill-opacity="1"><g transform="translate(130.240858, 272.090137)"><g><path d="M 0.433594 0 L 7.875 0 L 7.875 -1.34375 L 2.714844 -1.34375 L 2.714844 -1.449219 L 7.742188 -8.429688 L 7.742188 -9.324219 L 0.511719 -9.324219 L 0.511719 -7.996094 L 5.53125 -7.996094 L 5.53125 -7.890625 L 0.433594 -0.910156 Z M 0.433594 0 "/></g></g></g><g fill="#ec1d27" fill-opacity="1"><g transform="translate(139.690709, 272.090137)"><g><path d="M 0.949219 0 L 7.847656 0 L 7.847656 -1.34375 L 2.554688 -1.34375 L 2.554688 -4.214844 L 7.335938 -4.214844 L 7.335938 -5.347656 L 2.554688 -5.347656 L 2.554688 -7.996094 L 7.71875 -7.996094 L 7.71875 -9.324219 L 0.949219 -9.324219 Z M 0.949219 0 "/></g></g></g><g fill="#ec1d27" fill-opacity="1"><g transform="translate(149.193202, 272.090137)"><g><path d="M 0.949219 0 L 2.609375 0 L 2.609375 -3.570312 L 4.136719 -3.570312 L 7.019531 0 L 8.902344 0 L 5.769531 -3.6875 L 6.058594 -3.699219 C 7.691406 -3.832031 8.796875 -4.886719 8.796875 -6.414062 C 8.796875 -8.191406 7.414062 -9.324219 5.269531 -9.324219 L 0.949219 -9.324219 Z M 2.609375 -4.703125 L 2.609375 -8.085938 L 5.003906 -8.085938 C 6.28125 -8.085938 7.125 -7.46875 7.125 -6.402344 C 7.125 -5.359375 6.269531 -4.703125 5.003906 -4.703125 Z M 2.609375 -4.703125 "/></g></g></g><g fill="#ec1d27" fill-opacity="1"><g transform="translate(159.722198, 272.090137)"><g><path d="M 5.664062 0.25 C 8.664062 0.25 10.761719 -1.726562 10.761719 -4.664062 C 10.761719 -7.597656 8.664062 -9.585938 5.664062 -9.585938 C 2.660156 -9.585938 0.566406 -7.597656 0.566406 -4.664062 C 0.566406 -1.726562 2.660156 0.25 5.664062 0.25 Z M 5.664062 -1.132812 C 3.660156 -1.132812 2.238281 -2.59375 2.238281 -4.664062 C 2.238281 -6.742188 3.660156 -8.191406 5.664062 -8.191406 C 7.679688 -8.191406 9.101562 -6.742188 9.101562 -4.664062 C 9.101562 -2.582031 7.679688 -1.132812 5.664062 -1.132812 Z M 5.664062 -1.132812 "/></g></g></g><g fill="#ec1d27" fill-opacity="1"><g transform="translate(172.198895, 272.090137)"><g/></g></g><g fill="#ec1d27" fill-opacity="1"><g transform="translate(176.582082, 272.090137)"><g><path d="M 3.320312 0 L 4.976562 0 L 4.976562 -7.941406 L 8.097656 -7.941406 L 8.097656 -9.324219 L 0.210938 -9.324219 L 0.210938 -7.941406 L 3.320312 -7.941406 Z M 3.320312 0 "/></g></g></g><g fill="#ec1d27" fill-opacity="1"><g transform="translate(186.018774, 272.090137)"><g><path d="M 5.664062 0.25 C 8.664062 0.25 10.761719 -1.726562 10.761719 -4.664062 C 10.761719 -7.597656 8.664062 -9.585938 5.664062 -9.585938 C 2.660156 -9.585938 0.566406 -7.597656 0.566406 -4.664062 C 0.566406 -1.726562 2.660156 0.25 5.664062 0.25 Z M 5.664062 -1.132812 C 3.660156 -1.132812 2.238281 -2.59375 2.238281 -4.664062 C 2.238281 -6.742188 3.660156 -8.191406 5.664062 -8.191406 C 7.679688 -8.191406 9.101562 -6.742188 9.101562 -4.664062 C 9.101562 -2.582031 7.679688 -1.132812 5.664062 -1.132812 Z M 5.664062 -1.132812 "/></g></g></g><g fill="#ec1d27" fill-opacity="1"><g transform="translate(198.495471, 272.090137)"><g/></g></g><g fill="#ec1d27" fill-opacity="1"><g transform="translate(202.878655, 272.090137)"><g><path d="M 2.503906 0 L 4.109375 0 L 4.109375 -9.324219 L 2.753906 -9.324219 L 0.328125 -7.429688 L 0.328125 -5.820312 L 2.398438 -7.429688 L 2.503906 -7.429688 Z M 2.503906 0 "/></g></g></g><g fill="#ec1d27" fill-opacity="1"><g transform="translate(209.077948, 272.090137)"><g><path d="M 4.742188 0.25 C 7.191406 0.25 8.824219 -1.671875 8.824219 -4.664062 C 8.824219 -7.652344 7.175781 -9.585938 4.742188 -9.585938 C 2.292969 -9.585938 0.660156 -7.664062 0.660156 -4.664062 C 0.660156 -1.6875 2.292969 0.25 4.742188 0.25 Z M 4.742188 -1.183594 C 3.28125 -1.183594 2.332031 -2.527344 2.316406 -4.664062 C 2.332031 -6.820312 3.253906 -8.140625 4.742188 -8.140625 C 6.203125 -8.140625 7.164062 -6.796875 7.164062 -4.664062 C 7.164062 -2.542969 6.203125 -1.183594 4.742188 -1.183594 Z M 4.742188 -1.183594 "/></g></g></g><g fill="#ec1d27" fill-opacity="1"><g transform="translate(219.699054, 272.090137)"><g><path d="M 4.742188 0.25 C 7.191406 0.25 8.824219 -1.671875 8.824219 -4.664062 C 8.824219 -7.652344 7.175781 -9.585938 4.742188 -9.585938 C 2.292969 -9.585938 0.660156 -7.664062 0.660156 -4.664062 C 0.660156 -1.6875 2.292969 0.25 4.742188 0.25 Z M 4.742188 -1.183594 C 3.28125 -1.183594 2.332031 -2.527344 2.316406 -4.664062 C 2.332031 -6.820312 3.253906 -8.140625 4.742188 -8.140625 C 6.203125 -8.140625 7.164062 -6.796875 7.164062 -4.664062 C 7.164062 -2.542969 6.203125 -1.183594 4.742188 -1.183594 Z M 4.742188 -1.183594 "/></g></g></g><g fill="#ec1d27" fill-opacity="1"><g transform="translate(230.320166, 272.090137)"><g><path d="M 1.382812 0.144531 C 1.910156 0.144531 2.292969 -0.238281 2.292969 -0.765625 C 2.292969 -1.277344 1.910156 -1.644531 1.382812 -1.644531 C 0.84375 -1.644531 0.460938 -1.265625 0.460938 -0.765625 C 0.460938 -0.238281 0.84375 0.144531 1.382812 0.144531 Z M 1.382812 0.144531 "/></g></g></g><g fill="#ec1d27" fill-opacity="1"><g transform="translate(234.216433, 272.090137)"><g><path d="M 1.382812 0.144531 C 1.910156 0.144531 2.292969 -0.238281 2.292969 -0.765625 C 2.292969 -1.277344 1.910156 -1.644531 1.382812 -1.644531 C 0.84375 -1.644531 0.460938 -1.265625 0.460938 -0.765625 C 0.460938 -0.238281 0.84375 0.144531 1.382812 0.144531 Z M 1.382812 0.144531 "/></g></g></g><g fill="#ec1d27" fill-opacity="1"><g transform="translate(238.1127, 272.090137)"><g><path d="M 1.382812 0.144531 C 1.910156 0.144531 2.292969 -0.238281 2.292969 -0.765625 C 2.292969 -1.277344 1.910156 -1.644531 1.382812 -1.644531 C 0.84375 -1.644531 0.460938 -1.265625 0.460938 -0.765625 C 0.460938 -0.238281 0.84375 0.144531 1.382812 0.144531 Z M 1.382812 0.144531 "/></g></g></g><g fill="#ec1d27" fill-opacity="1"><g transform="translate(242.008966, 272.090137)"><g><path d="M 1.382812 0.144531 C 1.910156 0.144531 2.292969 -0.238281 2.292969 -0.765625 C 2.292969 -1.277344 1.910156 -1.644531 1.382812 -1.644531 C 0.84375 -1.644531 0.460938 -1.265625 0.460938 -0.765625 C 0.460938 -0.238281 0.84375 0.144531 1.382812 0.144531 Z M 1.382812 0.144531 "/></g></g></g></svg>